<svg id="svg" version="1.1" xmlns="http://www.w3.org/2000/svg" xmlns:xlink="http://www.w3.org/1999/xlink" width="100" height="100" viewBox="0, 0, 400,400"><g id="svgg"><path id="path0" d="M194.336 11.006 C 193.262 11.209,192.216 11.540,192.012 11.742 C 191.808 11.944,191.402 12.109,191.111 12.109 C 190.261 12.109,187.109 13.655,187.109 14.072 C 187.109 14.282,186.832 14.453,186.493 14.453 C 186.155 14.453,185.371 14.959,184.753 15.577 C 184.135 16.196,183.560 16.633,183.476 16.549 C 183.231 16.304,148.438 51.605,148.438 52.097 C 148.438 53.157,191.699 95.826,192.441 95.498 C 192.839 95.322,193.656 95.122,194.258 95.053 C 194.860 94.985,195.651 94.775,196.016 94.588 C 196.381 94.401,198.701 94.317,201.172 94.401 C 203.643 94.486,206.147 94.557,206.738 94.559 C 207.329 94.561,207.813 94.739,207.813 94.955 C 207.813 95.170,208.032 95.311,208.301 95.267 C 208.569 95.223,209.284 95.391,209.889 95.640 C 210.494 95.890,211.143 96.094,211.331 96.094 C 211.520 96.094,212.295 96.460,213.055 96.908 C 213.814 97.356,214.659 97.760,214.932 97.805 C 216.524 98.069,224.609 105.366,224.609 106.538 C 224.609 106.809,224.741 107.032,224.902 107.034 C 225.272 107.037,226.563 109.277,226.563 109.914 C 226.563 110.176,226.768 110.596,227.019 110.847 C 227.552 111.380,228.501 113.966,228.510 114.909 C 228.513 115.267,228.671 115.618,228.861 115.690 C 230.192 116.191,229.950 127.753,228.532 131.420 L 228.089 132.566 249.103 153.570 L 270.117 174.574 272.461 173.975 C 275.396 173.225,282.392 172.946,284.747 173.486 C 285.724 173.710,286.963 173.953,287.500 174.026 C 288.037 174.100,289.355 174.553,290.430 175.034 C 291.504 175.515,292.515 175.880,292.676 175.845 C 292.837 175.810,292.969 175.945,292.969 176.146 C 292.969 176.346,293.351 176.631,293.818 176.779 C 294.285 176.927,295.014 177.373,295.439 177.769 C 295.864 178.165,296.355 178.400,296.531 178.292 C 296.706 178.183,297.073 178.453,297.347 178.891 C 297.620 179.329,297.950 179.688,298.079 179.688 C 298.505 179.688,301.953 183.117,301.953 183.541 C 301.953 183.770,302.274 184.129,302.666 184.339 C 303.294 184.675,307.091 191.544,306.672 191.585 C 306.582 191.594,306.751 192.041,307.048 192.578 C 307.345 193.115,307.548 193.694,307.500 193.863 C 307.451 194.033,307.600 194.526,307.832 194.957 C 309.043 197.221,308.966 206.076,307.707 209.375 C 307.584 209.697,307.104 211.146,306.641 212.593 C 306.178 214.041,305.618 215.337,305.398 215.473 C 305.178 215.609,304.750 216.316,304.446 217.043 C 303.816 218.550,303.388 219.101,300.362 222.305 C 299.164 223.572,297.967 224.609,297.702 224.609 C 297.437 224.609,297.328 224.785,297.461 225.000 C 297.594 225.215,297.455 225.391,297.153 225.391 C 296.851 225.391,296.199 225.742,295.703 226.172 C 295.208 226.602,294.593 226.953,294.337 226.953 C 294.081 226.953,293.552 227.306,293.162 227.737 C 292.772 228.168,292.365 228.433,292.258 228.326 C 292.152 228.219,291.828 228.328,291.540 228.567 C 291.252 228.806,291.016 228.872,291.016 228.714 C 291.016 228.555,290.590 228.705,290.069 229.046 C 289.549 229.387,288.538 229.775,287.823 229.908 C 287.108 230.041,286.260 230.203,285.938 230.269 C 285.615 230.334,284.209 230.523,282.813 230.688 C 279.344 231.099,277.572 231.027,273.730 230.323 C 272.150 230.033,268.574 228.784,267.676 228.208 C 267.192 227.898,266.797 227.763,266.797 227.907 C 266.797 228.051,266.270 227.858,265.625 227.477 C 264.980 227.096,264.453 226.647,264.453 226.478 C 264.453 226.310,264.181 226.172,263.848 226.172 C 263.516 226.172,262.799 225.688,262.254 225.098 C 261.710 224.507,261.402 224.287,261.570 224.609 C 261.738 224.932,261.005 224.285,259.942 223.172 C 256.978 220.070,255.938 218.802,256.169 218.571 C 256.285 218.454,256.175 218.359,255.924 218.359 C 255.674 218.359,255.469 218.129,255.469 217.847 C 255.469 217.565,255.161 216.987,254.785 216.562 C 254.409 216.137,254.044 215.535,253.973 215.223 C 253.902 214.911,253.705 214.566,253.536 214.457 C 253.235 214.262,252.250 211.262,251.355 207.813 C 250.928 206.169,250.831 199.930,251.197 197.656 C 251.387 196.475,251.591 195.156,251.650 194.727 C 251.709 194.297,251.861 193.857,251.987 193.750 C 252.113 193.643,252.420 192.957,252.671 192.226 L 253.126 190.898 233.388 171.328 L 213.650 151.758 213.661 203.452 L 213.672 255.146 214.844 255.588 C 215.488 255.832,216.016 256.178,216.016 256.359 C 216.016 256.539,216.173 256.589,216.365 256.471 C 216.558 256.352,216.820 256.528,216.948 256.863 C 217.077 257.198,217.353 257.366,217.563 257.236 C 217.772 257.107,218.167 257.359,218.441 257.797 C 218.714 258.235,219.093 258.594,219.283 258.594 C 219.746 258.594,223.438 262.423,223.438 262.903 C 223.438 263.111,223.604 263.281,223.807 263.281 C 224.212 263.281,224.507 263.779,226.624 268.030 C 228.258 271.309,228.571 272.101,228.739 273.369 C 228.805 273.869,229.026 274.484,229.230 274.736 C 229.890 275.555,229.534 287.758,228.834 288.289 C 228.687 288.400,228.505 288.927,228.429 289.460 C 228.353 289.994,227.822 291.444,227.249 292.684 C 226.676 293.924,226.215 295.047,226.223 295.179 C 226.232 295.312,226.091 295.528,225.910 295.659 C 225.414 296.020,223.438 298.736,223.438 299.056 C 223.438 299.489,219.176 303.516,218.718 303.516 C 218.495 303.516,218.422 303.691,218.555 303.906 C 218.687 304.121,218.522 304.297,218.187 304.297 C 217.852 304.297,217.578 304.483,217.578 304.711 C 217.578 304.938,217.429 305.032,217.247 304.919 C 217.064 304.807,216.581 305.016,216.172 305.385 C 215.764 305.753,214.902 306.293,214.258 306.584 C 213.613 306.875,212.484 307.403,211.749 307.756 C 211.014 308.109,210.267 308.420,210.089 308.447 C 209.911 308.474,209.722 308.530,209.668 308.572 C 209.614 308.613,209.062 308.714,208.441 308.795 C 207.821 308.876,207.030 309.064,206.684 309.212 C 205.769 309.603,203.342 309.816,200.000 309.800 C 197.159 309.786,196.548 309.720,195.313 309.289 C 194.990 309.176,193.723 308.792,192.496 308.433 C 191.270 308.075,189.424 307.401,188.395 306.935 C 187.365 306.469,186.406 306.080,186.262 306.071 C 186.118 306.062,185.547 305.660,184.992 305.178 C 184.438 304.696,183.984 304.416,183.984 304.555 C 183.984 304.693,183.614 304.385,183.161 303.868 C 182.708 303.352,182.224 302.955,182.086 302.986 C 181.949 303.018,181.097 302.271,180.194 301.326 C 179.291 300.382,178.653 299.609,178.776 299.609 C 178.899 299.609,178.451 299.049,177.781 298.363 C 177.111 297.678,176.563 296.902,176.563 296.638 C 176.563 296.375,176.424 296.100,176.255 296.029 C 173.833 295.002,171.212 282.491,172.260 276.953 C 172.524 275.557,172.743 274.019,172.747 273.535 C 172.751 273.052,172.870 272.656,173.013 272.656 C 173.155 272.656,173.298 272.300,173.331 271.864 C 173.387 271.121,174.693 268.229,175.972 266.016 C 176.982 264.268,181.641 258.716,181.641 259.260 C 181.641 259.426,182.087 259.081,182.633 258.492 C 183.179 257.903,184.278 257.066,185.075 256.631 C 185.871 256.196,187.227 255.423,188.086 254.913 L 189.648 253.985 189.748 201.843 L 189.847 149.701 188.966 149.420 C 188.482 149.265,187.825 149.078,187.507 149.005 C 187.189 148.931,186.866 148.685,186.791 148.459 C 186.715 148.232,186.432 148.047,186.161 148.047 C 185.890 148.047,185.350 147.695,184.961 147.266 C 184.572 146.836,184.088 146.484,183.885 146.484 C 183.347 146.484,177.344 140.429,177.344 139.887 C 177.344 139.635,177.080 139.327,176.758 139.204 C 176.436 139.080,176.172 138.679,176.172 138.313 C 176.172 137.947,175.813 137.263,175.375 136.792 C 174.937 136.322,174.695 135.938,174.837 135.938 C 174.979 135.938,174.921 135.718,174.708 135.449 C 174.495 135.181,174.110 134.258,173.852 133.398 C 173.594 132.539,173.243 131.484,173.072 131.055 C 171.974 128.301,171.692 119.821,172.601 116.887 C 172.819 116.185,173.008 115.526,173.022 115.422 C 173.036 115.319,173.060 115.190,173.076 115.137 C 173.092 115.083,173.182 114.625,173.275 114.118 C 173.369 113.612,173.590 112.939,173.768 112.622 C 174.009 112.191,168.714 106.627,152.658 90.438 L 131.227 68.829 73.125 126.941 C 37.155 162.916,14.728 185.630,14.250 186.569 C 13.824 187.403,13.344 188.145,13.181 188.217 C 13.019 188.289,12.985 188.509,13.107 188.705 C 13.228 188.902,13.141 189.063,12.914 189.063 C 12.686 189.063,12.500 189.502,12.500 190.039 C 12.500 190.576,12.361 191.016,12.190 191.016 C 9.675 191.016,10.649 208.774,13.283 210.938 C 13.414 211.045,13.742 211.680,14.012 212.349 C 14.548 213.675,184.768 384.099,187.109 385.654 C 188.359 386.483,189.401 387.018,190.430 387.356 C 190.645 387.427,192.073 387.913,193.604 388.436 C 196.908 389.566,202.849 389.772,206.055 388.867 C 207.129 388.564,208.141 388.312,208.305 388.307 C 208.468 388.301,209.171 387.993,209.867 387.622 C 210.563 387.251,211.243 386.939,211.377 386.930 C 213.058 386.818,223.403 376.687,299.821 300.321 C 347.101 253.072,384.410 215.487,385.168 214.341 C 387.311 211.104,388.767 207.487,389.056 204.688 C 389.581 199.588,388.845 192.531,387.702 191.705 C 387.483 191.547,387.441 191.416,387.607 191.412 C 387.773 191.409,387.649 191.011,387.333 190.527 C 387.016 190.044,386.765 189.561,386.774 189.453 C 386.811 189.027,385.795 187.109,385.532 187.109 C 385.377 187.109,385.050 186.626,384.805 186.035 C 384.372 184.991,216.079 16.387,214.573 15.489 C 214.159 15.241,213.127 14.600,212.281 14.064 C 211.435 13.528,210.654 13.115,210.547 13.147 C 210.439 13.178,210.000 13.008,209.570 12.769 C 209.141 12.530,208.657 12.371,208.496 12.417 C 208.335 12.463,208.203 12.314,208.203 12.086 C 208.203 11.859,208.046 11.770,207.854 11.888 C 207.662 12.007,206.827 11.815,205.999 11.461 C 204.223 10.703,197.357 10.435,194.336 11.006 " stroke="none" fill="#f45434" fill-rule="evenodd"></path><path id="path1" d="M152.239 47.565 C 149.934 49.878,148.047 51.944,148.047 52.156 C 148.047 52.368,157.847 62.297,169.824 74.220 L 191.602 95.898 170.020 74.217 C 158.149 62.293,148.438 52.364,148.438 52.154 C 148.438 51.943,150.324 49.878,152.630 47.565 C 154.936 45.252,156.735 43.359,156.627 43.359 C 156.520 43.359,154.545 45.252,152.239 47.565 M89.452 110.449 L 65.430 134.570 89.551 110.548 C 111.973 88.218,113.847 86.328,113.573 86.328 C 113.519 86.328,102.664 97.183,89.452 110.449 M292.969 93.872 C 292.969 93.939,293.540 94.511,294.238 95.142 L 295.508 96.289 294.361 95.020 C 293.291 93.836,292.969 93.570,292.969 93.872 M59.552 140.332 L 58.008 141.992 59.668 140.448 C 61.212 139.012,61.508 138.672,61.212 138.672 C 61.148 138.672,60.401 139.419,59.552 140.332 M42.182 157.715 L 36.523 163.477 42.285 157.818 C 47.638 152.560,48.224 151.953,47.944 151.953 C 47.888 151.953,45.295 154.546,42.182 157.715 M224.219 162.305 C 229.909 167.998,234.653 172.656,234.760 172.656 C 234.868 172.656,230.300 167.998,224.609 162.305 C 218.919 156.611,214.175 151.953,214.068 151.953 C 213.961 151.953,218.528 156.611,224.219 162.305 M25.952 173.926 L 24.805 175.195 26.074 174.048 C 26.772 173.417,27.344 172.846,27.344 172.778 C 27.344 172.477,27.021 172.742,25.952 173.926 M303.086 184.961 C 303.744 186.235,304.285 186.941,304.282 186.523 C 304.281 186.309,303.920 185.693,303.481 185.156 C 302.950 184.508,302.818 184.442,303.086 184.961 M45.898 245.313 C 61.581 260.996,74.500 273.828,74.607 273.828 C 74.715 273.828,61.972 260.996,46.289 245.313 C 30.607 229.629,17.688 216.797,17.580 216.797 C 17.473 216.797,30.216 229.629,45.898 245.313 M91.406 290.747 C 91.406 290.814,91.978 291.386,92.676 292.017 L 93.945 293.164 92.798 291.895 C 91.729 290.711,91.406 290.445,91.406 290.747 M99.023 298.438 C 99.863 299.297,100.637 300.000,100.744 300.000 C 100.852 300.000,100.253 299.297,99.414 298.438 C 98.575 297.578,97.800 296.875,97.693 296.875 C 97.586 296.875,98.184 297.578,99.023 298.438 M146.680 346.094 C 166.444 365.859,182.703 382.031,182.811 382.031 C 182.918 382.031,166.835 365.859,147.070 346.094 C 127.306 326.328,111.047 310.156,110.939 310.156 C 110.832 310.156,126.915 326.328,146.680 346.094 " stroke="none" fill="#ec5434" fill-rule="evenodd"></path><path id="path2" d="M152.539 90.234 C 164.354 102.051,174.109 111.719,174.216 111.719 C 174.324 111.719,164.745 102.051,152.930 90.234 C 141.115 78.418,131.360 68.750,131.253 68.750 C 131.145 68.750,140.724 78.418,152.539 90.234 M190.033 202.148 C 190.033 230.938,190.080 242.657,190.137 228.192 C 190.193 213.727,190.193 190.173,190.137 175.848 C 190.080 161.524,190.033 173.359,190.033 202.148 " stroke="none" fill="#f85434" fill-rule="evenodd"></path><path id="path3" d="M152.539 90.234 C 164.354 102.051,174.109 111.719,174.216 111.719 C 174.324 111.719,164.745 102.051,152.930 90.234 C 141.115 78.418,131.360 68.750,131.253 68.750 C 131.145 68.750,140.724 78.418,152.539 90.234 M190.033 202.148 C 190.033 230.938,190.080 242.657,190.137 228.192 C 190.193 213.727,190.193 190.173,190.137 175.848 C 190.080 161.524,190.033 173.359,190.033 202.148 " stroke="none" fill="#f85434" fill-rule="evenodd"></path><path id="path4" d="M152.539 90.234 C 164.354 102.051,174.109 111.719,174.216 111.719 C 174.324 111.719,164.745 102.051,152.930 90.234 C 141.115 78.418,131.360 68.750,131.253 68.750 C 131.145 68.750,140.724 78.418,152.539 90.234 M190.033 202.148 C 190.033 230.938,190.080 242.657,190.137 228.192 C 190.193 213.727,190.193 190.173,190.137 175.848 C 190.080 161.524,190.033 173.359,190.033 202.148 " stroke="none" fill="#f85434" fill-rule="evenodd"></path></g></svg>
