<svg id="svg" version="1.1" xmlns="http://www.w3.org/2000/svg" xmlns:xlink="http://www.w3.org/1999/xlink" width="100" height="100" viewBox="0, 0, 400,400"><g id="svgg"><path id="path0" d="M20.400 0.800 C 20.400 1.492,20.133 1.600,18.426 1.600 C 15.624 1.600,14.484 2.123,14.329 3.479 C 14.217 4.453,14.007 4.616,12.731 4.722 C 11.362 4.836,11.245 4.951,10.996 6.422 C 10.747 7.899,10.642 8.000,9.365 8.000 C 8.078 8.000,8.000 8.078,8.000 9.365 C 8.000 10.642,7.899 10.747,6.422 10.996 C 4.951 11.245,4.836 11.362,4.722 12.731 C 4.616 14.007,4.453 14.217,3.479 14.329 C 2.123 14.484,1.600 15.624,1.600 18.426 C 1.600 20.133,1.492 20.400,0.800 20.400 C 0.001 20.400,0.000 20.667,0.000 200.000 C 0.000 379.333,0.001 379.600,0.800 379.600 C 1.510 379.600,1.600 379.867,1.600 381.967 C 1.600 385.073,1.817 385.529,3.439 385.834 C 4.659 386.063,4.800 386.225,4.800 387.402 C 4.800 388.788,5.312 389.200,7.033 389.200 C 7.872 389.200,8.000 389.386,8.000 390.600 C 8.000 391.933,8.067 392.000,9.400 392.000 C 10.614 392.000,10.800 392.128,10.800 392.967 C 10.800 394.704,11.209 395.200,12.643 395.200 C 13.748 395.200,14.000 395.354,14.000 396.026 C 14.000 397.974,14.649 398.400,17.614 398.400 C 20.133 398.400,20.400 398.477,20.400 399.200 C 20.400 399.999,20.667 400.000,200.000 400.000 C 379.333 400.000,379.600 399.999,379.600 399.200 C 379.600 398.472,379.867 398.400,382.557 398.400 C 385.707 398.400,386.000 398.212,386.000 396.191 C 386.000 395.390,386.226 395.230,387.500 395.124 C 388.919 395.007,389.007 394.919,389.124 393.500 C 389.242 392.081,389.323 392.000,390.624 392.000 C 391.925 392.000,392.000 391.925,392.000 390.624 C 392.000 389.323,392.081 389.242,393.500 389.124 C 394.919 389.007,395.007 388.919,395.124 387.500 C 395.230 386.226,395.390 386.000,396.191 386.000 C 398.212 386.000,398.400 385.707,398.400 382.557 C 398.400 379.867,398.472 379.600,399.200 379.600 C 399.999 379.600,400.000 379.333,400.000 200.000 C 400.000 20.667,399.999 20.400,399.200 20.400 C 398.477 20.400,398.400 20.133,398.400 17.614 C 398.400 14.649,397.974 14.000,396.026 14.000 C 395.354 14.000,395.200 13.748,395.200 12.643 C 395.200 11.209,394.704 10.800,392.967 10.800 C 392.128 10.800,392.000 10.614,392.000 9.400 C 392.000 8.067,391.933 8.000,390.600 8.000 C 389.386 8.000,389.200 7.872,389.200 7.033 C 389.200 5.312,388.788 4.800,387.402 4.800 C 386.225 4.800,386.063 4.659,385.834 3.439 C 385.529 1.817,385.073 1.600,381.967 1.600 C 379.867 1.600,379.600 1.510,379.600 0.800 C 379.600 0.001,379.333 0.000,200.000 0.000 C 20.667 0.000,20.400 0.001,20.400 0.800 M368.918 24.909 C 369.513 25.299,370.000 25.847,370.000 26.127 C 370.000 26.406,370.585 26.807,371.300 27.017 C 372.095 27.251,372.800 27.821,373.114 28.483 C 373.396 29.078,374.162 30.100,374.815 30.753 L 376.003 31.941 375.901 200.511 L 375.800 369.082 374.225 370.841 C 373.359 371.808,371.840 373.320,370.850 374.200 L 369.050 375.800 200.496 375.901 L 31.941 376.003 30.753 374.815 C 30.100 374.162,29.078 373.396,28.483 373.114 C 27.828 372.803,27.251 372.095,27.024 371.324 C 26.786 370.515,26.321 369.967,25.752 369.824 C 23.942 369.369,23.984 373.779,24.095 198.982 C 24.210 17.442,24.049 30.400,26.178 30.400 C 26.486 30.400,26.942 29.780,27.192 29.023 C 27.535 27.984,27.984 27.535,29.023 27.192 C 29.780 26.942,30.400 26.504,30.400 26.218 C 30.400 25.428,31.477 24.699,33.121 24.378 C 36.892 23.642,367.782 24.165,368.918 24.909 M251.200 87.708 C 251.200 120.109,251.130 124.322,250.577 125.111 L 249.955 126.000 225.877 126.030 C 212.635 126.046,200.990 126.196,200.000 126.363 L 198.200 126.667 199.319 127.131 C 199.983 127.406,200.673 128.155,201.013 128.969 C 201.388 129.868,201.900 130.387,202.493 130.471 C 203.050 130.550,203.632 131.092,204.000 131.876 C 204.330 132.577,205.011 133.257,205.512 133.386 C 206.014 133.516,206.761 134.175,207.172 134.851 C 207.584 135.527,208.478 136.419,209.160 136.834 C 209.882 137.273,210.400 137.922,210.400 138.389 C 210.400 138.926,210.862 139.382,211.803 139.775 C 212.628 140.120,213.368 140.789,213.600 141.401 C 213.830 142.005,214.498 142.615,215.196 142.859 C 216.048 143.156,216.491 143.640,216.721 144.526 C 216.944 145.387,217.347 145.843,218.022 145.997 C 218.636 146.136,219.273 146.773,219.733 147.709 C 220.202 148.663,220.744 149.200,221.239 149.200 C 221.674 149.200,222.341 149.741,222.766 150.440 C 223.181 151.122,224.078 152.019,224.760 152.434 C 225.459 152.859,226.000 153.526,226.000 153.961 C 226.000 154.456,226.537 154.998,227.491 155.467 C 228.427 155.927,229.064 156.564,229.203 157.178 C 229.357 157.853,229.813 158.256,230.674 158.479 C 231.560 158.709,232.044 159.152,232.341 160.004 C 232.585 160.702,233.195 161.370,233.799 161.600 C 234.411 161.832,235.080 162.572,235.425 163.397 C 235.818 164.338,236.274 164.800,236.811 164.800 C 237.278 164.800,237.927 165.318,238.366 166.040 C 238.781 166.722,239.678 167.619,240.360 168.034 C 241.059 168.459,241.600 169.126,241.600 169.561 C 241.600 170.057,242.137 170.597,243.100 171.067 C 244.067 171.540,244.646 172.122,244.729 172.707 C 244.813 173.300,245.332 173.812,246.231 174.187 C 247.024 174.518,247.770 175.196,247.995 175.788 C 248.210 176.352,248.848 176.990,249.412 177.205 C 250.004 177.430,250.682 178.176,251.013 178.969 C 251.388 179.868,251.900 180.387,252.493 180.471 C 253.050 180.550,253.632 181.092,254.000 181.876 C 254.330 182.577,255.011 183.257,255.512 183.386 C 256.014 183.516,256.761 184.175,257.172 184.851 C 257.584 185.527,258.478 186.419,259.160 186.834 C 259.882 187.273,260.400 187.922,260.400 188.389 C 260.400 188.926,260.862 189.382,261.803 189.775 C 262.628 190.120,263.368 190.789,263.600 191.401 C 263.830 192.005,264.498 192.615,265.196 192.859 C 266.048 193.156,266.491 193.640,266.721 194.526 C 266.944 195.387,267.347 195.843,268.022 195.997 C 268.636 196.136,269.273 196.773,269.733 197.709 C 270.206 198.671,270.743 199.200,271.246 199.200 C 271.714 199.200,272.358 199.760,272.853 200.600 C 274.001 202.546,276.440 202.656,277.397 200.806 C 277.737 200.148,278.467 199.498,279.022 199.359 C 279.661 199.198,280.232 198.618,280.588 197.767 C 280.949 196.904,281.513 196.337,282.177 196.170 C 282.821 196.008,283.299 195.543,283.454 194.929 C 283.589 194.389,284.383 193.516,285.218 192.988 C 286.053 192.461,286.847 191.683,286.982 191.258 C 287.116 190.833,287.745 190.271,288.379 190.009 C 289.013 189.746,289.746 189.013,290.009 188.379 C 290.271 187.745,290.833 187.116,291.258 186.982 C 291.683 186.847,292.461 186.053,292.988 185.218 C 293.516 184.383,294.389 183.589,294.929 183.454 C 295.543 183.299,296.008 182.821,296.170 182.177 C 296.337 181.513,296.904 180.949,297.767 180.588 C 298.599 180.241,299.199 179.660,299.350 179.055 C 299.485 178.520,300.226 177.710,300.997 177.255 C 301.769 176.799,302.400 176.148,302.400 175.807 C 302.400 175.466,303.020 174.891,303.778 174.530 C 304.536 174.169,305.361 173.377,305.612 172.771 C 305.863 172.165,306.556 171.467,307.152 171.220 C 307.751 170.972,308.435 170.243,308.682 169.589 C 308.927 168.939,309.585 168.234,310.145 168.021 C 310.704 167.808,311.444 167.089,311.788 166.423 C 312.143 165.737,312.862 165.099,313.447 164.953 C 314.103 164.788,314.626 164.272,314.883 163.535 C 315.105 162.897,315.815 162.103,316.461 161.769 C 317.106 161.435,317.808 160.704,318.021 160.145 C 318.234 159.585,318.939 158.927,319.589 158.682 C 320.243 158.435,320.972 157.751,321.220 157.152 C 321.467 156.556,322.165 155.863,322.771 155.612 C 323.377 155.361,324.169 154.536,324.530 153.778 C 324.891 153.020,325.466 152.400,325.807 152.400 C 326.148 152.400,326.799 151.769,327.255 150.997 C 327.710 150.226,328.520 149.485,329.055 149.350 C 329.660 149.199,330.241 148.599,330.588 147.767 C 330.949 146.904,331.513 146.337,332.177 146.170 C 332.821 146.008,333.299 145.543,333.454 144.929 C 333.589 144.389,334.383 143.516,335.218 142.988 C 336.053 142.461,336.847 141.683,336.982 141.258 C 337.116 140.833,337.745 140.271,338.379 140.009 C 339.013 139.746,339.746 139.013,340.009 138.379 C 340.271 137.745,340.833 137.116,341.258 136.982 C 341.683 136.847,342.461 136.053,342.988 135.218 C 343.516 134.383,344.389 133.589,344.929 133.454 C 345.543 133.299,346.008 132.821,346.170 132.177 C 346.337 131.513,346.904 130.949,347.767 130.588 C 348.618 130.232,349.198 129.661,349.359 129.022 C 349.503 128.449,350.170 127.718,350.906 127.328 L 352.200 126.642 350.600 126.344 C 349.720 126.180,337.986 126.036,324.524 126.023 C 305.402 126.005,299.976 125.891,299.724 125.500 C 299.546 125.225,299.310 108.440,299.200 88.200 L 299.000 51.400 275.100 51.297 L 251.200 51.194 251.200 87.708 M60.200 66.037 C 56.359 66.986,54.304 68.739,53.873 71.434 C 53.721 72.384,53.123 73.590,52.407 74.392 L 51.197 75.747 51.299 137.373 L 51.400 199.000 62.600 199.000 L 73.800 199.000 74.000 153.000 C 74.110 127.700,74.355 106.683,74.544 106.297 C 75.389 104.568,78.729 105.205,79.196 107.184 C 79.353 107.849,79.820 108.258,80.674 108.479 C 81.560 108.709,82.044 109.152,82.341 110.004 C 82.585 110.702,83.195 111.370,83.799 111.600 C 84.411 111.832,85.080 112.572,85.425 113.397 C 85.818 114.338,86.274 114.800,86.811 114.800 C 87.278 114.800,87.927 115.318,88.366 116.040 C 88.781 116.722,89.678 117.619,90.360 118.034 C 91.059 118.459,91.600 119.126,91.600 119.561 C 91.600 120.057,92.137 120.597,93.100 121.067 C 94.067 121.540,94.646 122.122,94.729 122.707 C 94.813 123.300,95.332 123.812,96.231 124.187 C 97.024 124.518,97.770 125.196,97.995 125.788 C 98.210 126.352,98.848 126.990,99.412 127.205 C 100.004 127.430,100.682 128.176,101.013 128.969 C 101.388 129.868,101.900 130.387,102.493 130.471 C 103.055 130.551,103.628 131.091,104.000 131.891 C 104.417 132.790,104.879 133.185,105.516 133.191 C 106.721 133.203,109.210 134.508,110.136 135.614 C 111.028 136.680,114.848 136.602,115.707 135.501 C 116.422 134.585,118.869 133.205,119.800 133.193 C 120.305 133.186,120.821 132.707,121.200 131.891 C 121.572 131.091,122.145 130.551,122.707 130.471 C 123.300 130.387,123.812 129.868,124.187 128.969 C 124.518 128.176,125.196 127.430,125.788 127.205 C 126.352 126.990,126.990 126.352,127.205 125.788 C 127.430 125.196,128.176 124.518,128.969 124.187 C 129.868 123.812,130.387 123.300,130.471 122.707 C 130.550 122.150,131.092 121.568,131.876 121.200 C 132.577 120.870,133.257 120.189,133.386 119.688 C 133.516 119.186,134.175 118.439,134.851 118.028 C 135.527 117.616,136.419 116.722,136.834 116.040 C 137.273 115.318,137.922 114.800,138.389 114.800 C 138.926 114.800,139.382 114.338,139.775 113.397 C 140.120 112.572,140.789 111.832,141.401 111.600 C 142.005 111.370,142.615 110.702,142.859 110.004 C 143.157 109.147,143.639 108.710,144.539 108.478 C 145.399 108.256,145.840 107.875,145.927 107.280 C 146.208 105.359,148.916 104.581,150.238 106.042 C 150.976 106.857,151.006 108.362,151.200 152.942 L 151.400 199.000 162.600 199.000 L 173.800 199.000 173.800 136.272 C 173.800 75.832,173.773 73.529,173.066 73.133 C 172.662 72.907,171.821 71.583,171.196 70.191 C 169.890 67.281,169.788 67.211,165.082 66.030 L 161.564 65.146 159.855 65.973 C 158.916 66.428,157.799 66.802,157.374 66.805 C 155.769 66.817,154.851 67.312,154.395 68.412 C 154.126 69.061,153.442 69.716,152.800 69.940 C 152.182 70.155,151.434 70.837,151.138 71.454 C 150.842 72.072,150.176 72.788,149.658 73.046 C 149.140 73.304,148.509 73.940,148.256 74.458 C 148.003 74.976,147.235 75.670,146.549 76.000 C 145.863 76.330,145.111 77.106,144.876 77.725 C 144.621 78.399,143.964 79.034,143.239 79.308 C 142.399 79.625,141.950 80.119,141.774 80.919 C 141.604 81.692,141.128 82.237,140.328 82.573 C 139.673 82.849,138.926 83.494,138.668 84.007 C 138.411 84.519,137.696 85.222,137.080 85.569 C 136.465 85.916,135.741 86.646,135.473 87.192 C 135.204 87.738,134.555 88.398,134.029 88.660 C 133.504 88.922,132.849 89.673,132.573 90.328 C 132.237 91.128,131.692 91.604,130.919 91.774 C 130.119 91.950,129.625 92.399,129.308 93.239 C 129.034 93.964,128.399 94.621,127.725 94.876 C 127.106 95.111,126.330 95.863,126.000 96.549 C 125.670 97.235,124.976 98.003,124.458 98.256 C 123.940 98.509,123.310 99.126,123.058 99.627 C 122.806 100.128,122.096 100.822,121.480 101.169 C 120.865 101.516,120.145 102.236,119.880 102.769 C 119.616 103.302,118.860 104.036,118.200 104.399 C 117.530 104.769,116.942 105.459,116.868 105.964 C 116.484 108.589,108.716 108.589,108.332 105.964 C 108.258 105.459,107.670 104.769,107.000 104.399 C 106.340 104.036,105.584 103.302,105.320 102.769 C 105.055 102.236,104.335 101.516,103.720 101.169 C 103.104 100.822,102.394 100.128,102.142 99.627 C 101.890 99.126,101.260 98.509,100.742 98.256 C 100.224 98.003,99.530 97.235,99.200 96.549 C 98.870 95.863,98.094 95.111,97.475 94.876 C 96.801 94.621,96.166 93.964,95.892 93.239 C 95.575 92.399,95.081 91.950,94.281 91.774 C 93.508 91.604,92.963 91.128,92.627 90.328 C 92.351 89.673,91.706 88.926,91.193 88.668 C 90.681 88.411,89.978 87.696,89.631 87.080 C 89.284 86.465,88.554 85.741,88.008 85.473 C 87.462 85.204,86.802 84.555,86.540 84.029 C 86.278 83.504,85.506 82.840,84.825 82.554 C 83.972 82.195,83.516 81.678,83.358 80.891 C 83.200 80.098,82.766 79.612,81.940 79.300 C 81.235 79.034,80.576 78.391,80.324 77.725 C 80.089 77.106,79.337 76.330,78.651 76.000 C 77.965 75.670,77.197 74.976,76.944 74.458 C 76.691 73.940,76.074 73.310,75.573 73.058 C 75.072 72.806,74.378 72.096,74.031 71.480 C 73.684 70.865,72.950 70.139,72.400 69.869 C 71.850 69.598,71.166 68.888,70.879 68.291 C 70.563 67.631,69.935 67.123,69.279 66.997 C 68.686 66.882,67.390 66.509,66.400 66.168 C 63.594 65.201,63.585 65.201,60.200 66.037 M51.387 226.494 C 51.281 226.772,51.241 254.450,51.297 288.000 L 51.400 349.000 75.200 349.000 L 99.000 349.000 99.000 337.600 L 99.000 326.200 87.144 326.094 C 76.730 326.001,75.222 325.908,74.744 325.333 C 74.294 324.791,74.165 316.150,74.000 275.439 L 73.800 226.200 62.690 226.094 C 54.017 226.011,51.538 226.098,51.387 226.494 M126.183 226.499 C 126.075 226.781,126.035 231.959,126.093 238.006 L 126.200 249.000 137.600 249.000 L 149.000 249.000 149.000 237.600 L 149.000 226.200 137.690 226.094 C 128.793 226.010,126.338 226.097,126.183 226.499 M301.200 256.556 C 301.200 272.877,301.143 274.380,300.500 275.157 C 299.820 275.978,299.464 276.005,288.000 276.101 L 276.200 276.200 276.200 287.600 L 276.200 299.000 288.056 299.106 C 298.468 299.199,299.978 299.292,300.456 299.867 C 300.896 300.398,301.038 305.135,301.200 324.761 L 301.400 349.000 312.600 349.000 L 323.800 349.000 324.000 324.761 C 324.162 305.135,324.304 300.398,324.744 299.867 C 325.222 299.292,326.732 299.199,337.144 299.106 L 349.000 299.000 349.000 287.600 L 349.000 276.200 337.200 276.101 C 325.736 276.005,325.380 275.978,324.700 275.157 C 324.057 274.380,324.000 272.877,324.000 256.556 L 324.000 238.800 312.600 238.800 L 301.200 238.800 301.200 256.556 M126.187 276.494 C 126.080 276.772,126.040 293.200,126.097 313.000 L 126.200 349.000 137.600 349.000 L 149.000 349.000 149.000 312.600 L 149.000 276.200 137.690 276.094 C 128.857 276.011,126.337 276.098,126.187 276.494 M176.185 276.498 C 176.080 276.774,176.040 293.200,176.097 313.000 L 176.200 349.000 187.600 349.000 L 199.000 349.000 199.103 324.637 C 199.176 307.453,199.338 300.116,199.652 299.737 C 200.279 298.982,224.306 298.948,225.323 299.700 C 225.943 300.158,226.007 302.226,226.100 324.600 L 226.200 349.000 237.600 349.000 L 249.000 349.000 249.000 312.600 L 249.000 276.200 212.688 276.098 C 183.850 276.017,176.337 276.099,176.185 276.498 " stroke="none" fill="#040404" fill-rule="evenodd"></path><path id="path1" d="M37.400 26.291 C 36.740 26.386,35.840 26.788,35.400 27.184 C 34.509 27.986,31.002 29.600,30.149 29.600 C 29.847 29.600,29.600 29.847,29.600 30.149 C 29.600 31.070,27.956 34.543,27.052 35.532 L 26.200 36.464 26.200 200.190 C 26.200 351.101,26.251 363.974,26.853 364.658 C 27.674 365.590,29.007 368.267,29.338 369.649 C 29.517 370.397,29.922 370.764,30.747 370.929 C 31.383 371.057,32.150 371.398,32.452 371.689 C 32.753 371.979,33.519 372.618,34.154 373.109 L 35.308 374.000 200.188 374.000 L 365.069 374.000 366.834 372.651 C 367.805 371.909,369.092 371.186,369.694 371.045 C 370.455 370.866,370.866 370.455,371.045 369.694 C 371.186 369.092,371.909 367.805,372.651 366.834 L 374.000 365.069 374.000 200.172 L 374.000 35.276 372.577 33.572 C 371.794 32.636,371.051 31.356,370.926 30.729 C 370.765 29.927,370.388 29.512,369.649 29.327 C 368.014 28.918,365.077 27.569,364.258 26.851 C 363.554 26.234,41.615 25.682,37.400 26.291 M300.200 49.830 C 300.988 50.426,301.002 50.966,301.106 87.206 L 301.212 123.978 327.106 124.089 C 354.714 124.207,355.399 124.257,356.140 126.188 C 356.282 126.558,279.205 204.251,276.637 206.326 C 275.546 207.208,272.837 205.199,266.203 198.586 C 262.348 194.744,259.016 191.600,258.797 191.600 C 258.579 191.600,258.400 191.411,258.400 191.180 C 258.400 190.631,234.569 166.800,234.020 166.800 C 233.789 166.800,233.600 166.618,233.600 166.395 C 233.600 165.866,209.334 141.600,208.805 141.600 C 208.582 141.600,208.400 141.400,208.400 141.156 C 208.400 140.912,205.234 137.568,201.365 133.726 C 194.438 126.848,194.341 126.728,195.061 125.933 C 196.638 124.190,196.384 124.208,223.200 124.000 L 249.000 123.800 249.102 87.229 C 249.195 53.897,249.263 50.594,249.864 49.929 C 250.791 48.905,298.850 48.810,300.200 49.830 M66.600 61.989 C 67.480 62.193,68.560 62.801,69.000 63.341 C 69.440 63.882,70.461 64.595,71.268 64.928 C 72.075 65.260,72.935 65.906,73.180 66.362 C 73.424 66.818,74.156 67.467,74.806 67.803 C 75.456 68.139,76.094 68.834,76.222 69.347 C 76.357 69.883,77.035 70.555,77.818 70.928 C 78.613 71.307,79.278 71.972,79.418 72.528 C 79.557 73.084,80.222 73.748,81.018 74.128 C 81.830 74.515,82.478 75.171,82.624 75.754 C 82.772 76.344,83.256 76.828,83.846 76.976 C 84.429 77.122,85.085 77.770,85.472 78.582 C 85.852 79.378,86.516 80.043,87.072 80.182 C 87.630 80.322,88.293 80.988,88.676 81.791 C 89.061 82.598,89.673 83.210,90.165 83.281 C 90.642 83.349,91.257 83.944,91.600 84.668 C 91.930 85.366,92.780 86.215,93.489 86.557 C 94.220 86.908,94.882 87.589,95.018 88.128 C 95.157 88.684,95.822 89.348,96.618 89.728 C 97.430 90.115,98.078 90.771,98.224 91.354 C 98.372 91.944,98.856 92.428,99.446 92.576 C 100.029 92.722,100.685 93.370,101.072 94.182 C 101.452 94.978,102.116 95.643,102.672 95.782 C 103.219 95.920,103.890 96.581,104.251 97.338 C 104.614 98.099,105.367 98.839,106.035 99.091 C 106.672 99.331,107.366 99.985,107.579 100.545 C 107.792 101.104,108.511 101.844,109.177 102.188 C 109.843 102.533,110.501 103.261,110.638 103.807 C 110.854 104.671,111.109 104.800,112.600 104.800 C 114.091 104.800,114.346 104.671,114.562 103.807 C 114.699 103.261,115.357 102.533,116.023 102.188 C 116.689 101.844,117.408 101.104,117.621 100.545 C 117.834 99.985,118.528 99.331,119.165 99.091 C 119.833 98.839,120.586 98.099,120.949 97.338 C 121.310 96.581,121.981 95.920,122.528 95.782 C 123.084 95.643,123.748 94.978,124.128 94.182 C 124.515 93.370,125.171 92.722,125.754 92.576 C 126.344 92.428,126.828 91.944,126.976 91.354 C 127.122 90.771,127.770 90.115,128.582 89.728 C 129.378 89.348,130.043 88.684,130.182 88.128 C 130.323 87.567,130.991 86.905,131.811 86.514 C 132.575 86.150,133.200 85.584,133.200 85.257 C 133.200 84.431,134.389 83.200,135.188 83.200 C 135.553 83.200,136.150 82.575,136.514 81.811 C 136.905 80.991,137.567 80.323,138.128 80.182 C 138.684 80.043,139.348 79.378,139.728 78.582 C 140.115 77.770,140.771 77.122,141.354 76.976 C 141.944 76.828,142.428 76.344,142.576 75.754 C 142.722 75.171,143.370 74.515,144.182 74.128 C 144.978 73.748,145.643 73.084,145.782 72.528 C 145.920 71.981,146.581 71.310,147.338 70.949 C 148.099 70.586,148.839 69.833,149.091 69.165 C 149.331 68.528,149.962 67.842,150.494 67.640 C 151.025 67.438,151.756 66.822,152.117 66.271 C 152.478 65.720,153.333 65.146,154.018 64.996 C 154.703 64.846,155.730 64.199,156.300 63.558 C 158.621 60.953,166.714 60.854,169.125 63.400 C 169.854 64.170,170.652 64.800,170.899 64.800 C 171.441 64.800,173.200 66.397,173.200 66.889 C 173.200 67.081,173.659 67.635,174.221 68.119 C 175.977 69.634,175.981 69.778,175.990 135.871 L 176.000 199.542 174.925 200.388 C 173.308 201.659,150.804 201.491,149.829 200.200 C 149.299 199.498,149.224 194.004,149.213 155.350 C 149.206 131.122,149.093 110.766,148.962 110.112 L 148.725 108.925 145.162 112.437 C 143.203 114.369,141.600 116.140,141.600 116.374 C 141.600 116.609,141.403 116.800,141.163 116.800 C 140.922 116.800,136.516 121.030,131.371 126.200 C 126.225 131.370,121.838 135.600,121.621 135.600 C 121.404 135.600,120.625 136.202,119.889 136.938 C 117.414 139.413,108.111 139.447,105.775 136.990 C 105.101 136.281,104.138 135.571,103.636 135.411 C 103.134 135.252,98.615 130.999,93.595 125.961 C 88.575 120.922,84.273 116.800,84.034 116.800 C 83.795 116.800,83.600 116.609,83.600 116.374 C 83.600 116.140,81.997 114.369,80.038 112.437 L 76.475 108.925 76.238 110.112 C 76.107 110.766,76.000 131.154,76.000 155.421 L 76.000 199.542 74.925 200.388 C 73.308 201.659,50.804 201.491,49.829 200.200 C 49.088 199.218,48.873 75.434,49.606 71.568 C 49.895 70.046,50.344 69.123,51.158 68.379 C 51.788 67.804,52.420 66.968,52.561 66.523 C 52.702 66.078,53.534 65.391,54.409 64.996 C 55.284 64.601,56.000 64.058,56.000 63.788 C 56.000 62.046,62.257 60.984,66.600 61.989 M74.526 224.454 C 75.007 224.704,75.490 224.989,75.600 225.087 C 75.710 225.186,75.890 247.437,76.000 274.533 L 76.200 323.800 87.886 324.000 C 98.411 324.180,99.644 324.271,100.286 324.914 C 101.380 326.009,101.380 349.192,100.286 350.286 C 99.106 351.465,50.724 351.383,49.830 350.200 C 49.297 349.494,49.224 342.102,49.213 287.576 C 49.199 223.126,49.156 224.865,50.800 224.278 C 52.051 223.830,73.636 223.991,74.526 224.454 M150.286 224.914 C 151.380 226.009,151.380 249.191,150.286 250.286 C 149.192 251.380,126.009 251.380,124.914 250.286 C 124.268 249.641,124.189 248.493,124.083 238.258 C 123.959 226.342,124.109 225.058,125.694 224.406 C 127.529 223.650,149.477 224.104,150.286 224.914 M324.942 237.226 L 325.992 238.052 326.096 255.926 L 326.200 273.800 337.886 274.000 C 348.411 274.180,349.644 274.271,350.286 274.914 C 351.380 276.009,351.380 299.191,350.286 300.286 C 349.644 300.929,348.411 301.020,337.886 301.200 L 326.200 301.400 326.097 325.473 L 325.994 349.547 324.922 350.390 C 323.305 351.662,300.632 351.490,299.871 350.200 C 299.530 349.620,299.345 342.787,299.200 325.400 L 299.000 301.400 287.314 301.200 C 276.789 301.020,275.556 300.929,274.914 300.286 C 273.820 299.191,273.820 276.009,274.914 274.914 C 275.556 274.271,276.789 274.180,287.314 274.000 L 299.000 273.800 299.096 256.200 C 299.195 238.207,299.293 237.057,300.758 236.665 C 303.368 235.966,323.948 236.444,324.942 237.226 M150.286 274.914 C 151.395 276.024,151.395 349.177,150.286 350.286 C 149.191 351.380,126.009 351.380,124.914 350.286 C 124.077 349.449,123.572 277.978,124.388 275.832 C 125.030 274.144,125.956 274.028,138.086 274.116 C 148.513 274.192,149.638 274.266,150.286 274.914 M250.286 274.914 C 251.395 276.024,251.395 349.176,250.286 350.286 C 249.191 351.380,226.009 351.380,224.914 350.286 C 224.247 349.619,224.193 347.987,224.091 325.386 L 223.982 301.200 212.600 301.200 L 201.218 301.200 201.109 325.386 C 201.007 347.987,200.953 349.619,200.286 350.286 C 199.191 351.380,176.009 351.380,174.914 350.286 C 174.241 349.612,174.194 347.503,174.094 313.228 C 173.983 275.453,173.998 275.099,175.694 274.411 C 177.636 273.624,249.480 274.108,250.286 274.914 " stroke="none" fill="#fcfcfc" fill-rule="evenodd"></path><path id="path2" d="M36.845 25.649 C 35.659 25.847,34.300 26.232,33.824 26.505 C 29.261 29.118,29.158 29.220,26.524 33.784 C 25.238 36.011,25.206 40.121,25.211 200.200 C 25.216 365.126,25.217 365.211,26.817 367.200 C 27.260 367.750,27.889 368.784,28.215 369.498 C 28.542 370.212,29.482 371.245,30.304 371.794 C 31.127 372.343,32.308 373.199,32.929 373.696 L 34.059 374.600 200.152 374.600 C 358.083 374.600,366.294 374.565,367.223 373.896 C 367.760 373.508,368.874 372.742,369.697 372.193 C 370.520 371.643,371.643 370.520,372.193 369.697 C 372.742 368.874,373.508 367.760,373.896 367.223 C 374.565 366.294,374.600 358.083,374.600 200.152 L 374.600 34.059 373.696 32.929 C 373.199 32.308,372.338 31.118,371.781 30.284 C 371.225 29.451,370.282 28.584,369.685 28.358 C 369.088 28.132,368.240 27.616,367.800 27.212 C 365.735 25.315,374.143 25.409,201.400 25.347 C 106.777 25.314,38.101 25.440,36.845 25.649 M364.258 26.851 C 365.077 27.569,368.014 28.918,369.649 29.327 C 370.388 29.512,370.765 29.927,370.926 30.729 C 371.051 31.356,371.794 32.636,372.577 33.572 L 374.000 35.276 374.000 200.172 L 374.000 365.069 372.651 366.834 C 371.909 367.805,371.186 369.092,371.045 369.694 C 370.866 370.455,370.455 370.866,369.694 371.045 C 369.092 371.186,367.805 371.909,366.834 372.651 L 365.069 374.000 200.188 374.000 L 35.308 374.000 34.154 373.109 C 33.519 372.618,32.753 371.979,32.452 371.689 C 32.150 371.398,31.383 371.057,30.747 370.929 C 29.922 370.764,29.517 370.397,29.338 369.649 C 29.007 368.267,27.674 365.590,26.853 364.658 C 26.251 363.974,26.200 351.101,26.200 200.190 L 26.200 36.464 27.052 35.532 C 27.956 34.543,29.600 31.070,29.600 30.149 C 29.600 29.847,29.847 29.600,30.149 29.600 C 31.002 29.600,34.509 27.986,35.400 27.184 C 36.636 26.071,29.573 26.115,201.058 26.159 C 350.485 26.197,363.576 26.252,364.258 26.851 M249.864 49.929 C 249.263 50.594,249.195 53.897,249.102 87.229 L 249.000 123.800 223.200 124.000 C 196.384 124.208,196.638 124.190,195.061 125.933 C 194.341 126.728,194.438 126.848,201.365 133.726 C 205.234 137.568,208.400 140.912,208.400 141.156 C 208.400 141.400,208.582 141.600,208.805 141.600 C 209.334 141.600,233.600 165.866,233.600 166.395 C 233.600 166.618,233.789 166.800,234.020 166.800 C 234.569 166.800,258.400 190.631,258.400 191.180 C 258.400 191.411,258.579 191.600,258.797 191.600 C 259.016 191.600,262.348 194.744,266.203 198.586 C 272.837 205.199,275.546 207.208,276.637 206.326 C 279.205 204.251,356.282 126.558,356.140 126.188 C 355.399 124.257,354.714 124.207,327.106 124.089 L 301.212 123.978 301.106 87.206 C 301.002 50.966,300.988 50.426,300.200 49.830 C 298.850 48.810,250.791 48.905,249.864 49.929 M299.986 50.774 C 300.263 51.291,300.400 63.542,300.400 87.694 C 300.400 115.274,300.514 123.954,300.880 124.320 C 301.243 124.683,307.568 124.800,326.894 124.800 C 356.908 124.800,356.842 124.790,352.700 128.669 C 351.765 129.545,350.537 130.788,349.970 131.431 C 349.404 132.074,347.334 134.130,345.370 136.000 C 343.407 137.870,341.616 139.756,341.392 140.192 C 341.168 140.628,340.628 141.168,340.192 141.392 C 339.756 141.616,337.870 143.407,336.000 145.370 C 334.130 147.334,332.086 149.404,331.458 149.970 C 329.962 151.319,326.028 155.240,324.958 156.449 C 324.494 156.972,322.469 158.972,320.458 160.893 C 318.446 162.815,316.800 164.513,316.800 164.668 C 316.800 165.075,315.121 166.800,314.724 166.800 C 314.538 166.800,312.815 168.446,310.893 170.458 C 308.972 172.469,306.972 174.494,306.449 174.958 C 305.240 176.028,301.319 179.962,299.970 181.458 C 299.404 182.086,297.334 184.130,295.370 186.000 C 293.407 187.870,291.616 189.756,291.392 190.192 C 291.168 190.628,290.628 191.168,290.192 191.392 C 289.756 191.616,287.870 193.407,286.000 195.370 C 284.130 197.334,282.074 199.404,281.431 199.970 C 280.788 200.537,279.545 201.765,278.669 202.700 C 276.994 204.488,275.878 204.790,273.824 204.009 C 273.259 203.794,255.486 186.307,234.329 165.148 L 195.862 126.677 196.953 125.739 L 198.045 124.800 223.291 124.800 C 246.221 124.800,248.604 124.739,249.269 124.138 C 249.967 123.506,250.000 121.836,250.000 87.218 C 250.000 59.551,250.114 50.846,250.480 50.480 C 251.428 49.532,299.474 49.817,299.986 50.774 M58.721 61.980 C 57.099 62.295,56.000 63.026,56.000 63.788 C 56.000 64.058,55.284 64.601,54.409 64.996 C 53.534 65.391,52.702 66.078,52.561 66.523 C 52.420 66.968,51.788 67.804,51.158 68.379 C 50.344 69.123,49.895 70.046,49.606 71.568 C 48.873 75.434,49.088 199.218,49.829 200.200 C 50.804 201.491,73.308 201.659,74.925 200.388 L 76.000 199.542 76.000 155.421 C 76.000 131.154,76.107 110.766,76.238 110.112 L 76.475 108.925 80.038 112.437 C 81.997 114.369,83.600 116.140,83.600 116.374 C 83.600 116.609,83.795 116.800,84.034 116.800 C 84.273 116.800,88.575 120.922,93.595 125.961 C 98.615 130.999,103.134 135.252,103.636 135.411 C 104.138 135.571,105.101 136.281,105.775 136.990 C 108.111 139.447,117.414 139.413,119.889 136.938 C 120.625 136.202,121.404 135.600,121.621 135.600 C 121.838 135.600,126.225 131.370,131.371 126.200 C 136.516 121.030,140.922 116.800,141.163 116.800 C 141.403 116.800,141.600 116.609,141.600 116.374 C 141.600 116.140,143.203 114.369,145.162 112.437 L 148.725 108.925 148.962 110.112 C 149.093 110.766,149.206 131.122,149.213 155.350 C 149.224 194.004,149.299 199.498,149.829 200.200 C 150.804 201.491,173.308 201.659,174.925 200.388 L 176.000 199.542 175.990 135.871 C 175.981 69.778,175.977 69.634,174.221 68.119 C 173.659 67.635,173.200 67.081,173.200 66.889 C 173.200 66.397,171.441 64.800,170.899 64.800 C 170.652 64.800,169.854 64.170,169.125 63.400 C 166.714 60.854,158.621 60.953,156.300 63.558 C 155.730 64.199,154.703 64.846,154.018 64.996 C 153.333 65.146,152.478 65.720,152.117 66.271 C 151.756 66.822,151.025 67.438,150.494 67.640 C 149.962 67.842,149.331 68.528,149.091 69.165 C 148.839 69.833,148.099 70.586,147.338 70.949 C 146.581 71.310,145.920 71.981,145.782 72.528 C 145.643 73.084,144.978 73.748,144.182 74.128 C 143.370 74.515,142.722 75.171,142.576 75.754 C 142.428 76.344,141.944 76.828,141.354 76.976 C 140.771 77.122,140.115 77.770,139.728 78.582 C 139.348 79.378,138.684 80.043,138.128 80.182 C 137.567 80.323,136.905 80.991,136.514 81.811 C 136.150 82.575,135.553 83.200,135.188 83.200 C 134.389 83.200,133.200 84.431,133.200 85.257 C 133.200 85.584,132.575 86.150,131.811 86.514 C 130.991 86.905,130.323 87.567,130.182 88.128 C 130.043 88.684,129.378 89.348,128.582 89.728 C 127.770 90.115,127.122 90.771,126.976 91.354 C 126.828 91.944,126.344 92.428,125.754 92.576 C 125.171 92.722,124.515 93.370,124.128 94.182 C 123.748 94.978,123.084 95.643,122.528 95.782 C 121.981 95.920,121.310 96.581,120.949 97.338 C 120.586 98.099,119.833 98.839,119.165 99.091 C 118.528 99.331,117.834 99.985,117.621 100.545 C 117.408 101.104,116.689 101.844,116.023 102.188 C 115.357 102.533,114.699 103.261,114.562 103.807 C 114.346 104.671,114.091 104.800,112.600 104.800 C 111.109 104.800,110.854 104.671,110.638 103.807 C 110.501 103.261,109.843 102.533,109.177 102.188 C 108.511 101.844,107.792 101.104,107.579 100.545 C 107.366 99.985,106.672 99.331,106.035 99.091 C 105.367 98.839,104.614 98.099,104.251 97.338 C 103.890 96.581,103.219 95.920,102.672 95.782 C 102.116 95.643,101.452 94.978,101.072 94.182 C 100.685 93.370,100.029 92.722,99.446 92.576 C 98.856 92.428,98.372 91.944,98.224 91.354 C 98.078 90.771,97.430 90.115,96.618 89.728 C 95.822 89.348,95.157 88.684,95.018 88.128 C 94.882 87.589,94.220 86.908,93.489 86.557 C 92.780 86.215,91.930 85.366,91.600 84.668 C 91.257 83.944,90.642 83.349,90.165 83.281 C 89.673 83.210,89.061 82.598,88.676 81.791 C 88.293 80.988,87.630 80.322,87.072 80.182 C 86.516 80.043,85.852 79.378,85.472 78.582 C 85.085 77.770,84.429 77.122,83.846 76.976 C 83.256 76.828,82.772 76.344,82.624 75.754 C 82.478 75.171,81.830 74.515,81.018 74.128 C 80.222 73.748,79.557 73.084,79.418 72.528 C 79.278 71.972,78.613 71.307,77.818 70.928 C 77.035 70.555,76.357 69.883,76.222 69.347 C 76.094 68.834,75.456 68.139,74.806 67.803 C 74.156 67.467,73.424 66.818,73.180 66.362 C 72.935 65.906,72.075 65.260,71.268 64.928 C 70.461 64.595,69.440 63.882,69.000 63.341 C 67.730 61.783,62.974 61.153,58.721 61.980 M67.200 63.615 C 67.750 64.061,68.920 64.777,69.800 65.205 C 71.173 65.874,73.634 68.027,76.058 70.680 C 76.420 71.076,77.140 71.798,77.658 72.284 C 78.839 73.393,79.421 73.973,82.593 77.200 C 83.998 78.630,85.385 80.034,85.674 80.320 C 87.901 82.519,91.768 86.309,92.288 86.800 C 92.637 87.130,93.210 87.722,93.561 88.116 C 93.913 88.509,94.629 89.229,95.153 89.716 C 95.678 90.202,97.158 91.680,98.442 93.000 C 99.727 94.320,101.060 95.670,101.404 96.000 C 101.749 96.330,102.429 97.024,102.916 97.542 C 103.402 98.060,104.092 98.759,104.448 99.094 C 108.081 102.516,109.628 104.104,109.994 104.788 C 110.630 105.977,114.570 105.977,115.206 104.788 C 115.572 104.104,117.119 102.516,120.752 99.094 C 121.108 98.759,121.798 98.060,122.284 97.542 C 123.368 96.388,123.903 95.849,127.200 92.593 C 128.630 91.180,130.050 89.774,130.355 89.467 C 131.077 88.742,138.742 81.077,139.467 80.355 C 139.774 80.050,141.180 78.630,142.593 77.200 C 145.849 73.903,146.388 73.368,147.542 72.284 C 148.060 71.798,148.780 71.075,149.142 70.678 C 151.689 67.882,153.673 66.198,155.400 65.368 C 156.500 64.839,157.911 64.000,158.535 63.503 C 160.008 62.330,165.372 62.318,167.186 63.485 C 170.756 65.779,171.731 66.607,173.282 68.663 L 175.000 70.937 175.106 135.034 C 175.202 193.116,175.152 199.190,174.577 199.765 C 173.736 200.607,151.796 200.730,150.682 199.900 C 150.062 199.438,150.003 195.962,149.906 154.200 C 149.823 118.690,149.692 108.811,149.295 108.117 C 148.813 107.274,148.167 107.853,135.020 120.917 C 119.791 136.049,118.158 137.423,114.912 137.828 C 111.377 138.270,106.400 137.223,106.400 136.038 C 106.400 135.851,105.834 135.463,105.143 135.176 C 104.440 134.885,97.831 128.617,90.144 120.953 C 77.073 107.919,76.377 107.292,75.901 108.125 C 75.511 108.806,75.356 119.058,75.200 154.315 C 75.025 194.013,74.926 199.676,74.400 200.009 C 73.563 200.538,51.766 200.517,50.774 199.986 C 49.537 199.324,49.579 73.879,50.817 71.400 C 52.424 68.183,53.553 66.667,55.106 65.645 C 55.979 65.070,57.156 64.272,57.721 63.870 C 59.946 62.292,65.387 62.146,67.200 63.615 M50.800 224.278 C 49.156 224.865,49.199 223.126,49.213 287.576 C 49.224 342.102,49.297 349.494,49.830 350.200 C 50.724 351.383,99.106 351.465,100.286 350.286 C 101.380 349.192,101.380 326.009,100.286 324.914 C 99.644 324.271,98.411 324.180,87.886 324.000 L 76.200 323.800 76.000 274.533 C 75.890 247.437,75.710 225.186,75.600 225.087 C 74.536 224.134,72.899 224.002,62.526 224.032 C 56.407 224.049,51.130 224.160,50.800 224.278 M125.694 224.406 C 124.109 225.058,123.959 226.342,124.083 238.258 C 124.189 248.493,124.268 249.641,124.914 250.286 C 126.009 251.380,149.192 251.380,150.286 250.286 C 151.380 249.191,151.380 226.009,150.286 224.914 C 149.477 224.104,127.529 223.650,125.694 224.406 M74.786 225.574 C 75.065 226.095,75.200 242.178,75.200 274.842 C 75.200 319.406,75.254 323.396,75.862 324.069 C 76.473 324.744,77.387 324.800,87.762 324.806 C 94.145 324.810,99.259 324.976,99.600 325.192 C 100.273 325.617,100.528 349.205,99.867 349.867 C 99.352 350.382,51.747 350.507,50.791 349.995 C 49.817 349.474,49.510 226.250,50.480 225.280 C 51.414 224.346,74.277 224.622,74.786 225.574 M149.600 225.192 C 150.273 225.617,150.528 249.206,149.867 249.867 C 149.206 250.528,125.617 250.273,125.192 249.600 C 124.479 248.473,124.698 226.159,125.429 225.429 C 126.159 224.698,148.473 224.479,149.600 225.192 M300.758 236.665 C 299.293 237.057,299.195 238.207,299.096 256.200 L 299.000 273.800 287.314 274.000 C 276.789 274.180,275.556 274.271,274.914 274.914 C 273.820 276.009,273.820 299.191,274.914 300.286 C 275.556 300.929,276.789 301.020,287.314 301.200 L 299.000 301.400 299.200 325.400 C 299.345 342.787,299.530 349.620,299.871 350.200 C 300.632 351.490,323.305 351.662,324.922 350.390 L 325.994 349.547 326.097 325.473 L 326.200 301.400 337.886 301.200 C 348.411 301.020,349.644 300.929,350.286 300.286 C 351.380 299.191,351.380 276.009,350.286 274.914 C 349.644 274.271,348.411 274.180,337.886 274.000 L 326.200 273.800 326.096 255.926 L 325.992 238.052 324.942 237.226 C 323.948 236.444,303.368 235.966,300.758 236.665 M324.469 237.862 C 325.156 238.484,325.200 239.575,325.200 255.930 C 325.200 271.566,325.267 273.411,325.862 274.069 C 326.473 274.744,327.387 274.800,337.762 274.806 C 344.145 274.810,349.259 274.976,349.600 275.192 C 350.272 275.617,350.528 299.205,349.867 299.867 C 349.684 300.050,344.380 300.253,338.079 300.318 C 328.220 300.420,326.524 300.526,325.912 301.080 C 325.245 301.684,325.200 303.214,325.200 325.433 C 325.200 346.454,325.129 349.214,324.571 349.771 C 323.810 350.532,302.159 350.728,300.774 349.986 C 300.022 349.584,300.000 348.891,300.000 325.648 C 300.000 303.222,299.955 301.684,299.288 301.080 C 298.676 300.526,296.976 300.420,287.073 300.318 C 277.372 300.218,275.511 300.106,275.191 299.600 C 274.479 298.472,274.698 276.159,275.429 275.429 C 275.970 274.887,277.612 274.800,287.297 274.800 C 297.195 274.800,298.624 274.721,299.269 274.138 C 299.956 273.516,300.000 272.425,300.000 256.070 C 300.000 240.434,300.067 238.589,300.662 237.931 C 301.627 236.866,323.298 236.802,324.469 237.862 M125.694 274.406 C 123.998 275.104,123.983 275.454,124.094 313.228 C 124.194 347.503,124.241 349.612,124.914 350.286 C 126.009 351.380,149.191 351.380,150.286 350.286 C 151.395 349.177,151.395 276.024,150.286 274.914 C 149.477 274.104,127.529 273.650,125.694 274.406 M175.694 274.411 C 173.998 275.099,173.983 275.453,174.094 313.228 C 174.194 347.503,174.241 349.612,174.914 350.286 C 176.009 351.380,199.191 351.380,200.286 350.286 C 200.953 349.619,201.007 347.987,201.109 325.386 L 201.218 301.200 212.600 301.200 L 223.982 301.200 224.091 325.386 C 224.193 347.987,224.247 349.619,224.914 350.286 C 226.009 351.380,249.191 351.380,250.286 350.286 C 251.395 349.176,251.395 276.024,250.286 274.914 C 249.480 274.108,177.636 273.624,175.694 274.411 M149.600 275.192 C 150.275 275.618,150.537 349.196,149.867 349.867 C 149.206 350.528,125.617 350.273,125.192 349.600 C 124.459 348.442,124.690 276.167,125.429 275.429 C 126.159 274.698,148.473 274.479,149.600 275.192 M249.600 275.192 C 250.275 275.618,250.537 349.196,249.867 349.867 C 249.206 350.528,225.617 350.273,225.192 349.600 C 224.964 349.239,224.810 339.493,224.806 325.180 C 224.802 307.194,224.682 301.242,224.320 300.880 C 223.592 300.152,201.465 300.199,200.858 300.930 C 200.552 301.299,200.385 308.762,200.309 325.497 C 200.249 338.717,200.050 349.684,199.867 349.867 C 199.205 350.528,175.617 350.273,175.192 349.600 C 174.459 348.442,174.690 276.167,175.429 275.429 C 176.167 274.690,248.442 274.459,249.600 275.192 " stroke="none" fill="#acacac" fill-rule="evenodd"></path><path id="path3" d="M33.121 24.378 C 31.477 24.699,30.400 25.428,30.400 26.218 C 30.400 26.504,29.780 26.942,29.023 27.192 C 27.984 27.535,27.535 27.984,27.192 29.023 C 26.942 29.780,26.486 30.400,26.178 30.400 C 24.049 30.400,24.210 17.442,24.095 198.982 C 23.984 373.779,23.942 369.369,25.752 369.824 C 26.321 369.967,26.786 370.515,27.024 371.324 C 27.251 372.095,27.828 372.803,28.483 373.114 C 29.078 373.396,30.100 374.162,30.753 374.815 L 31.941 376.003 200.496 375.901 L 369.050 375.800 370.850 374.200 C 371.840 373.320,373.359 371.808,374.225 370.841 L 375.800 369.082 375.901 200.511 L 376.003 31.941 374.815 30.753 C 374.162 30.100,373.396 29.078,373.114 28.483 C 372.800 27.821,372.095 27.251,371.300 27.017 C 370.585 26.807,370.000 26.406,370.000 26.127 C 370.000 25.847,369.513 25.299,368.918 24.909 C 367.782 24.165,36.892 23.642,33.121 24.378 M369.104 26.933 C 370.701 27.996,372.208 29.256,372.453 29.733 C 372.697 30.210,373.371 31.107,373.949 31.726 L 375.000 32.853 375.116 198.726 C 375.180 289.957,375.128 365.334,375.002 366.230 C 374.570 369.294,369.294 374.570,366.230 375.002 C 365.334 375.128,289.957 375.180,198.726 375.116 L 32.853 375.000 31.726 373.949 C 31.107 373.371,30.192 372.688,29.694 372.432 C 29.196 372.175,28.319 371.222,27.746 370.314 C 27.172 369.406,26.387 368.323,26.000 367.908 C 25.614 367.493,25.187 366.489,25.053 365.677 C 24.679 363.412,24.773 36.398,25.149 34.783 C 25.923 31.454,31.323 25.958,34.595 25.170 C 35.258 25.010,110.140 24.907,201.000 24.940 L 366.200 25.000 369.104 26.933 M250.880 50.880 C 250.514 51.246,250.399 59.949,250.394 87.580 C 250.390 109.693,250.240 124.034,250.009 124.400 C 249.680 124.920,246.202 125.027,224.029 125.200 C 200.927 125.380,198.364 125.464,197.768 126.061 C 196.737 127.092,272.667 202.991,275.046 203.306 C 276.749 203.532,276.657 203.602,282.200 197.899 C 283.520 196.541,285.749 194.343,287.152 193.015 C 288.556 191.687,290.086 190.169,290.552 189.642 C 291.019 189.115,293.088 187.045,295.150 185.042 C 297.213 183.039,299.149 181.130,299.454 180.800 C 299.758 180.470,301.221 178.976,302.704 177.480 C 304.187 175.984,306.300 173.833,307.400 172.701 C 308.500 171.569,310.557 169.554,311.971 168.222 C 313.385 166.890,315.005 165.283,315.571 164.651 C 316.137 164.019,318.283 161.859,320.340 159.851 C 322.397 157.843,324.287 155.964,324.540 155.675 C 325.027 155.119,329.655 150.521,330.752 149.502 C 331.108 149.171,333.039 147.213,335.042 145.150 C 337.045 143.088,339.115 141.019,339.642 140.552 C 340.169 140.086,341.687 138.556,343.015 137.152 C 344.343 135.749,346.541 133.520,347.899 132.200 C 349.257 130.880,351.126 129.056,352.053 128.146 L 353.738 126.492 352.489 125.846 C 351.378 125.271,348.457 125.200,326.100 125.200 C 307.080 125.200,300.843 125.083,300.480 124.720 C 300.114 124.354,300.000 115.642,300.000 87.949 C 300.000 55.490,299.934 51.591,299.371 51.029 C 298.545 50.202,251.702 50.058,250.880 50.880 M299.200 88.200 C 299.310 108.440,299.546 125.225,299.724 125.500 C 299.976 125.891,305.402 126.005,324.524 126.023 C 337.986 126.036,349.720 126.180,350.600 126.344 L 352.200 126.642 350.906 127.328 C 350.170 127.718,349.503 128.449,349.359 129.022 C 349.198 129.661,348.618 130.232,347.767 130.588 C 346.904 130.949,346.337 131.513,346.170 132.177 C 346.008 132.821,345.543 133.299,344.929 133.454 C 344.389 133.589,343.516 134.383,342.988 135.218 C 342.461 136.053,341.683 136.847,341.258 136.982 C 340.833 137.116,340.271 137.745,340.009 138.379 C 339.746 139.013,339.013 139.746,338.379 140.009 C 337.745 140.271,337.116 140.833,336.982 141.258 C 336.847 141.683,336.053 142.461,335.218 142.988 C 334.383 143.516,333.589 144.389,333.454 144.929 C 333.299 145.543,332.821 146.008,332.177 146.170 C 331.513 146.337,330.949 146.904,330.588 147.767 C 330.241 148.599,329.660 149.199,329.055 149.350 C 328.520 149.485,327.710 150.226,327.255 150.997 C 326.799 151.769,326.148 152.400,325.807 152.400 C 325.466 152.400,324.891 153.020,324.530 153.778 C 324.169 154.536,323.377 155.361,322.771 155.612 C 322.165 155.863,321.467 156.556,321.220 157.152 C 320.972 157.751,320.243 158.435,319.589 158.682 C 318.939 158.927,318.234 159.585,318.021 160.145 C 317.808 160.704,317.106 161.435,316.461 161.769 C 315.815 162.103,315.105 162.897,314.883 163.535 C 314.626 164.272,314.103 164.788,313.447 164.953 C 312.862 165.099,312.143 165.737,311.788 166.423 C 311.444 167.089,310.704 167.808,310.145 168.021 C 309.585 168.234,308.927 168.939,308.682 169.589 C 308.435 170.243,307.751 170.972,307.152 171.220 C 306.556 171.467,305.863 172.165,305.612 172.771 C 305.361 173.377,304.536 174.169,303.778 174.530 C 303.020 174.891,302.400 175.466,302.400 175.807 C 302.400 176.148,301.769 176.799,300.997 177.255 C 300.226 177.710,299.485 178.520,299.350 179.055 C 299.199 179.660,298.599 180.241,297.767 180.588 C 296.904 180.949,296.337 181.513,296.170 182.177 C 296.008 182.821,295.543 183.299,294.929 183.454 C 294.389 183.589,293.516 184.383,292.988 185.218 C 292.461 186.053,291.683 186.847,291.258 186.982 C 290.833 187.116,290.271 187.745,290.009 188.379 C 289.746 189.013,289.013 189.746,288.379 190.009 C 287.745 190.271,287.116 190.833,286.982 191.258 C 286.847 191.683,286.053 192.461,285.218 192.988 C 284.383 193.516,283.589 194.389,283.454 194.929 C 283.299 195.543,282.821 196.008,282.177 196.170 C 281.513 196.337,280.949 196.904,280.588 197.767 C 280.232 198.618,279.661 199.198,279.022 199.359 C 278.467 199.498,277.737 200.148,277.397 200.806 C 276.440 202.656,274.001 202.546,272.853 200.600 C 272.358 199.760,271.714 199.200,271.246 199.200 C 270.743 199.200,270.206 198.671,269.733 197.709 C 269.273 196.773,268.636 196.136,268.022 195.997 C 267.347 195.843,266.944 195.387,266.721 194.526 C 266.491 193.640,266.048 193.156,265.196 192.859 C 264.498 192.615,263.830 192.005,263.600 191.401 C 263.368 190.789,262.628 190.120,261.803 189.775 C 260.862 189.382,260.400 188.926,260.400 188.389 C 260.400 187.922,259.882 187.273,259.160 186.834 C 258.478 186.419,257.584 185.527,257.172 184.851 C 256.761 184.175,256.014 183.516,255.512 183.386 C 255.011 183.257,254.330 182.577,254.000 181.876 C 253.632 181.092,253.050 180.550,252.493 180.471 C 251.900 180.387,251.388 179.868,251.013 178.969 C 250.682 178.176,250.004 177.430,249.412 177.205 C 248.848 176.990,248.210 176.352,247.995 175.788 C 247.770 175.196,247.024 174.518,246.231 174.187 C 245.332 173.812,244.813 173.300,244.729 172.707 C 244.646 172.122,244.067 171.540,243.100 171.067 C 242.137 170.597,241.600 170.057,241.600 169.561 C 241.600 169.126,241.059 168.459,240.360 168.034 C 239.678 167.619,238.781 166.722,238.366 166.040 C 237.927 165.318,237.278 164.800,236.811 164.800 C 236.274 164.800,235.818 164.338,235.425 163.397 C 235.080 162.572,234.411 161.832,233.799 161.600 C 233.195 161.370,232.585 160.702,232.341 160.004 C 232.044 159.152,231.560 158.709,230.674 158.479 C 229.813 158.256,229.357 157.853,229.203 157.178 C 229.064 156.564,228.427 155.927,227.491 155.467 C 226.537 154.998,226.000 154.456,226.000 153.961 C 226.000 153.526,225.459 152.859,224.760 152.434 C 224.078 152.019,223.181 151.122,222.766 150.440 C 222.341 149.741,221.674 149.200,221.239 149.200 C 220.744 149.200,220.202 148.663,219.733 147.709 C 219.273 146.773,218.636 146.136,218.022 145.997 C 217.347 145.843,216.944 145.387,216.721 144.526 C 216.491 143.640,216.048 143.156,215.196 142.859 C 214.498 142.615,213.830 142.005,213.600 141.401 C 213.368 140.789,212.628 140.120,211.803 139.775 C 210.862 139.382,210.400 138.926,210.400 138.389 C 210.400 137.922,209.882 137.273,209.160 136.834 C 208.478 136.419,207.584 135.527,207.172 134.851 C 206.761 134.175,206.014 133.516,205.512 133.386 C 205.011 133.257,204.330 132.577,204.000 131.876 C 203.632 131.092,203.050 130.550,202.493 130.471 C 201.900 130.387,201.388 129.868,201.013 128.969 C 200.673 128.155,199.983 127.406,199.319 127.131 L 198.200 126.667 200.000 126.363 C 200.990 126.196,212.635 126.046,225.877 126.030 L 249.955 126.000 250.577 125.111 C 251.130 124.322,251.200 120.109,251.200 87.708 L 251.200 51.194 275.100 51.297 L 299.000 51.400 299.200 88.200 M61.763 63.603 C 57.928 64.157,54.586 66.625,52.438 70.492 L 50.600 73.800 50.495 136.267 C 50.400 192.815,50.450 198.793,51.024 199.367 C 51.973 200.315,73.223 200.320,74.171 199.371 C 74.735 198.807,74.800 194.123,74.800 153.790 C 74.800 107.972,74.825 107.183,76.268 106.629 C 76.623 106.493,81.773 111.363,90.396 119.991 C 97.860 127.457,104.648 133.935,105.483 134.385 C 106.317 134.835,107.508 135.608,108.129 136.102 C 109.638 137.302,115.649 137.430,117.223 136.296 C 117.760 135.908,118.884 135.135,119.720 134.578 C 120.557 134.020,127.345 127.455,134.805 119.989 C 148.309 106.474,149.045 105.865,149.869 107.531 C 150.051 107.899,150.290 128.682,150.400 153.715 C 150.575 193.590,150.674 199.276,151.200 199.609 C 152.325 200.319,173.441 200.101,174.171 199.371 C 174.933 198.610,175.147 75.466,174.392 72.748 C 174.170 71.949,173.451 70.620,172.794 69.793 C 172.138 68.966,171.600 68.048,171.600 67.752 C 171.600 67.270,170.235 66.398,166.268 64.344 C 163.674 63.001,161.144 63.090,158.792 64.605 C 157.634 65.351,156.218 66.067,155.644 66.196 C 154.759 66.395,152.095 68.702,149.541 71.482 C 148.919 72.159,147.672 73.382,146.462 74.502 C 146.166 74.776,144.782 76.170,143.388 77.600 C 141.993 79.030,140.581 80.470,140.250 80.800 C 139.920 81.130,137.793 83.264,135.524 85.542 C 133.256 87.820,130.983 90.070,130.473 90.542 C 129.474 91.467,125.317 95.590,124.502 96.465 C 123.377 97.672,122.159 98.920,121.499 99.541 C 119.661 101.268,116.109 104.859,115.330 105.776 C 114.628 106.603,114.103 106.800,112.600 106.800 C 111.097 106.800,110.572 106.603,109.870 105.776 C 107.989 103.562,104.385 100.000,104.025 100.000 C 103.816 100.000,103.341 99.484,102.968 98.854 C 102.596 98.224,101.776 97.404,101.146 97.032 C 100.516 96.659,99.999 96.140,99.997 95.877 C 99.996 95.615,98.888 94.410,97.536 93.200 C 96.183 91.990,94.700 90.585,94.238 90.079 C 93.777 89.572,91.625 87.412,89.455 85.279 C 87.286 83.145,85.126 80.983,84.655 80.473 C 83.743 79.485,79.626 75.333,78.735 74.502 C 77.499 73.350,76.277 72.155,75.659 71.494 C 72.491 68.101,70.751 66.586,69.307 65.964 C 68.376 65.563,67.116 64.882,66.507 64.451 C 65.030 63.405,64.182 63.254,61.763 63.603 M66.400 66.168 C 67.390 66.509,68.686 66.882,69.279 66.997 C 69.935 67.123,70.563 67.631,70.879 68.291 C 71.166 68.888,71.850 69.598,72.400 69.869 C 72.950 70.139,73.684 70.865,74.031 71.480 C 74.378 72.096,75.072 72.806,75.573 73.058 C 76.074 73.310,76.691 73.940,76.944 74.458 C 77.197 74.976,77.965 75.670,78.651 76.000 C 79.337 76.330,80.089 77.106,80.324 77.725 C 80.576 78.391,81.235 79.034,81.940 79.300 C 82.766 79.612,83.200 80.098,83.358 80.891 C 83.516 81.678,83.972 82.195,84.825 82.554 C 85.506 82.840,86.278 83.504,86.540 84.029 C 86.802 84.555,87.462 85.204,88.008 85.473 C 88.554 85.741,89.284 86.465,89.631 87.080 C 89.978 87.696,90.681 88.411,91.193 88.668 C 91.706 88.926,92.351 89.673,92.627 90.328 C 92.963 91.128,93.508 91.604,94.281 91.774 C 95.081 91.950,95.575 92.399,95.892 93.239 C 96.166 93.964,96.801 94.621,97.475 94.876 C 98.094 95.111,98.870 95.863,99.200 96.549 C 99.530 97.235,100.224 98.003,100.742 98.256 C 101.260 98.509,101.890 99.126,102.142 99.627 C 102.394 100.128,103.104 100.822,103.720 101.169 C 104.335 101.516,105.055 102.236,105.320 102.769 C 105.584 103.302,106.340 104.036,107.000 104.399 C 107.670 104.769,108.258 105.459,108.332 105.964 C 108.716 108.589,116.484 108.589,116.868 105.964 C 116.942 105.459,117.530 104.769,118.200 104.399 C 118.860 104.036,119.616 103.302,119.880 102.769 C 120.145 102.236,120.865 101.516,121.480 101.169 C 122.096 100.822,122.806 100.128,123.058 99.627 C 123.310 99.126,123.940 98.509,124.458 98.256 C 124.976 98.003,125.670 97.235,126.000 96.549 C 126.330 95.863,127.106 95.111,127.725 94.876 C 128.399 94.621,129.034 93.964,129.308 93.239 C 129.625 92.399,130.119 91.950,130.919 91.774 C 131.692 91.604,132.237 91.128,132.573 90.328 C 132.849 89.673,133.504 88.922,134.029 88.660 C 134.555 88.398,135.204 87.738,135.473 87.192 C 135.741 86.646,136.465 85.916,137.080 85.569 C 137.696 85.222,138.411 84.519,138.668 84.007 C 138.926 83.494,139.673 82.849,140.328 82.573 C 141.128 82.237,141.604 81.692,141.774 80.919 C 141.950 80.119,142.399 79.625,143.239 79.308 C 143.964 79.034,144.621 78.399,144.876 77.725 C 145.111 77.106,145.863 76.330,146.549 76.000 C 147.235 75.670,148.003 74.976,148.256 74.458 C 148.509 73.940,149.140 73.304,149.658 73.046 C 150.176 72.788,150.842 72.072,151.138 71.454 C 151.434 70.837,152.182 70.155,152.800 69.940 C 153.442 69.716,154.126 69.061,154.395 68.412 C 154.851 67.312,155.769 66.817,157.374 66.805 C 157.799 66.802,158.916 66.428,159.855 65.973 L 161.564 65.146 165.082 66.030 C 169.788 67.211,169.890 67.281,171.196 70.191 C 171.821 71.583,172.662 72.907,173.066 73.133 C 173.773 73.529,173.800 75.832,173.800 136.272 L 173.800 199.000 162.600 199.000 L 151.400 199.000 151.200 152.942 C 151.006 108.362,150.976 106.857,150.238 106.042 C 148.916 104.581,146.208 105.359,145.927 107.280 C 145.840 107.875,145.399 108.256,144.539 108.478 C 143.639 108.710,143.157 109.147,142.859 110.004 C 142.615 110.702,142.005 111.370,141.401 111.600 C 140.789 111.832,140.120 112.572,139.775 113.397 C 139.382 114.338,138.926 114.800,138.389 114.800 C 137.922 114.800,137.273 115.318,136.834 116.040 C 136.419 116.722,135.527 117.616,134.851 118.028 C 134.175 118.439,133.516 119.186,133.386 119.688 C 133.257 120.189,132.577 120.870,131.876 121.200 C 131.092 121.568,130.550 122.150,130.471 122.707 C 130.387 123.300,129.868 123.812,128.969 124.187 C 128.176 124.518,127.430 125.196,127.205 125.788 C 126.990 126.352,126.352 126.990,125.788 127.205 C 125.196 127.430,124.518 128.176,124.187 128.969 C 123.812 129.868,123.300 130.387,122.707 130.471 C 122.145 130.551,121.572 131.091,121.200 131.891 C 120.821 132.707,120.305 133.186,119.800 133.193 C 118.869 133.205,116.422 134.585,115.707 135.501 C 114.848 136.602,111.028 136.680,110.136 135.614 C 109.210 134.508,106.721 133.203,105.516 133.191 C 104.879 133.185,104.417 132.790,104.000 131.891 C 103.628 131.091,103.055 130.551,102.493 130.471 C 101.900 130.387,101.388 129.868,101.013 128.969 C 100.682 128.176,100.004 127.430,99.412 127.205 C 98.848 126.990,98.210 126.352,97.995 125.788 C 97.770 125.196,97.024 124.518,96.231 124.187 C 95.332 123.812,94.813 123.300,94.729 122.707 C 94.646 122.122,94.067 121.540,93.100 121.067 C 92.137 120.597,91.600 120.057,91.600 119.561 C 91.600 119.126,91.059 118.459,90.360 118.034 C 89.678 117.619,88.781 116.722,88.366 116.040 C 87.927 115.318,87.278 114.800,86.811 114.800 C 86.274 114.800,85.818 114.338,85.425 113.397 C 85.080 112.572,84.411 111.832,83.799 111.600 C 83.195 111.370,82.585 110.702,82.341 110.004 C 82.044 109.152,81.560 108.709,80.674 108.479 C 79.820 108.258,79.353 107.849,79.196 107.184 C 78.729 105.205,75.389 104.568,74.544 106.297 C 74.355 106.683,74.110 127.700,74.000 153.000 L 73.800 199.000 62.600 199.000 L 51.400 199.000 51.299 137.373 L 51.197 75.747 52.407 74.392 C 53.123 73.590,53.721 72.384,53.873 71.434 C 54.304 68.739,56.359 66.986,60.200 66.037 C 63.585 65.201,63.594 65.201,66.400 66.168 M51.029 225.829 C 50.067 226.790,50.067 348.410,51.029 349.371 C 52.072 350.415,98.390 350.316,99.338 349.269 C 100.397 348.098,100.334 326.826,99.269 325.862 C 98.625 325.279,97.205 325.200,87.442 325.200 C 80.559 325.200,76.054 325.043,75.574 324.786 C 74.815 324.380,74.800 323.408,74.800 275.414 C 74.800 231.441,74.736 226.393,74.171 225.829 C 73.631 225.288,72.015 225.200,62.600 225.200 C 53.185 225.200,51.569 225.288,51.029 225.829 M125.862 225.931 C 124.803 227.102,124.866 248.374,125.931 249.338 C 127.102 250.397,148.374 250.334,149.338 249.269 C 150.397 248.098,150.334 226.826,149.269 225.862 C 148.098 224.803,126.826 224.866,125.862 225.931 M74.000 275.439 C 74.165 316.150,74.294 324.791,74.744 325.333 C 75.222 325.908,76.730 326.001,87.144 326.094 L 99.000 326.200 99.000 337.600 L 99.000 349.000 75.200 349.000 L 51.400 349.000 51.297 288.000 C 51.241 254.450,51.281 226.772,51.387 226.494 C 51.538 226.098,54.017 226.011,62.690 226.094 L 73.800 226.200 74.000 275.439 M149.000 237.600 L 149.000 249.000 137.600 249.000 L 126.200 249.000 126.093 238.006 C 126.035 231.959,126.075 226.781,126.183 226.499 C 126.338 226.097,128.793 226.010,137.690 226.094 L 149.000 226.200 149.000 237.600 M300.880 238.480 C 300.521 238.839,300.400 243.380,300.400 256.451 C 300.400 271.819,300.324 274.019,299.771 274.571 C 299.230 275.113,297.581 275.200,287.833 275.200 C 273.585 275.200,275.200 273.606,275.200 287.670 C 275.200 301.581,273.544 300.000,288.117 300.000 C 299.033 300.000,299.591 300.036,299.986 300.774 C 300.258 301.282,300.400 309.644,300.400 325.145 C 300.400 346.064,300.471 348.814,301.029 349.371 C 301.973 350.316,323.227 350.316,324.171 349.371 C 324.729 348.814,324.800 346.038,324.800 324.851 C 324.800 306.803,324.917 300.843,325.280 300.480 C 325.631 300.129,328.840 300.000,337.218 300.000 C 351.640 300.000,350.000 301.600,350.000 287.530 C 350.000 273.633,351.596 275.200,337.442 275.200 C 330.559 275.200,326.054 275.043,325.574 274.786 C 324.827 274.386,324.800 273.762,324.800 256.666 C 324.800 243.428,324.679 238.839,324.320 238.480 C 323.969 238.129,320.809 238.000,312.600 238.000 C 304.391 238.000,301.231 238.129,300.880 238.480 M324.000 256.556 C 324.000 272.877,324.057 274.380,324.700 275.157 C 325.380 275.978,325.736 276.005,337.200 276.101 L 349.000 276.200 349.000 287.600 L 349.000 299.000 337.144 299.106 C 326.732 299.199,325.222 299.292,324.744 299.867 C 324.304 300.398,324.162 305.135,324.000 324.761 L 323.800 349.000 312.600 349.000 L 301.400 349.000 301.200 324.761 C 301.038 305.135,300.896 300.398,300.456 299.867 C 299.978 299.292,298.468 299.199,288.056 299.106 L 276.200 299.000 276.200 287.600 L 276.200 276.200 288.000 276.101 C 299.464 276.005,299.820 275.978,300.500 275.157 C 301.143 274.380,301.200 272.877,301.200 256.556 L 301.200 238.800 312.600 238.800 L 324.000 238.800 324.000 256.556 M125.862 275.931 C 124.785 277.122,124.852 348.361,125.931 349.338 C 127.102 350.397,148.374 350.334,149.338 349.269 C 150.415 348.078,150.348 276.839,149.269 275.862 C 148.098 274.803,126.826 274.866,125.862 275.931 M175.862 275.931 C 174.785 277.122,174.852 348.361,175.931 349.338 C 177.102 350.397,198.374 350.334,199.338 349.269 C 199.938 348.605,200.000 346.323,200.000 324.749 C 200.000 306.780,200.117 300.843,200.480 300.480 C 201.165 299.795,224.035 299.795,224.720 300.480 C 225.083 300.843,225.200 306.795,225.200 324.818 C 225.200 347.423,225.238 348.711,225.931 349.338 C 227.102 350.397,248.374 350.334,249.338 349.269 C 250.415 348.078,250.348 276.839,249.269 275.862 C 248.078 274.785,176.839 274.852,175.862 275.931 M149.000 312.600 L 149.000 349.000 137.600 349.000 L 126.200 349.000 126.097 313.000 C 126.040 293.200,126.080 276.772,126.187 276.494 C 126.337 276.098,128.857 276.011,137.690 276.094 L 149.000 276.200 149.000 312.600 M249.000 312.600 L 249.000 349.000 237.600 349.000 L 226.200 349.000 226.100 324.600 C 226.007 302.226,225.943 300.158,225.323 299.700 C 224.306 298.948,200.279 298.982,199.652 299.737 C 199.338 300.116,199.176 307.453,199.103 324.637 L 199.000 349.000 187.600 349.000 L 176.200 349.000 176.097 313.000 C 176.040 293.200,176.080 276.774,176.185 276.498 C 176.337 276.099,183.850 276.017,212.688 276.098 L 249.000 276.200 249.000 312.600 " stroke="none" fill="#3c3c3c" fill-rule="evenodd"></path><path id="path4" d="M34.595 25.170 C 31.323 25.958,25.923 31.454,25.149 34.783 C 24.773 36.398,24.679 363.412,25.053 365.677 C 25.187 366.489,25.614 367.493,26.000 367.908 C 26.387 368.323,27.172 369.406,27.746 370.314 C 28.319 371.222,29.196 372.175,29.694 372.432 C 30.192 372.688,31.107 373.371,31.726 373.949 L 32.853 375.000 198.726 375.116 C 289.957 375.180,365.334 375.128,366.230 375.002 C 369.294 374.570,374.570 369.294,375.002 366.230 C 375.128 365.334,375.180 289.957,375.116 198.726 L 375.000 32.853 373.949 31.726 C 373.371 31.107,372.697 30.210,372.453 29.733 C 372.208 29.256,370.701 27.996,369.104 26.933 L 366.200 25.000 201.000 24.940 C 110.140 24.907,35.258 25.010,34.595 25.170 M365.400 25.941 C 366.280 26.236,367.360 26.807,367.800 27.212 C 368.240 27.616,369.088 28.132,369.685 28.358 C 370.282 28.584,371.225 29.451,371.781 30.284 C 372.338 31.118,373.199 32.308,373.696 32.929 L 374.600 34.059 374.600 200.152 C 374.600 358.083,374.565 366.294,373.896 367.223 C 373.508 367.760,372.742 368.874,372.193 369.697 C 371.643 370.520,370.520 371.643,369.697 372.193 C 368.874 372.742,367.760 373.508,367.223 373.896 C 366.294 374.565,358.083 374.600,200.152 374.600 L 34.059 374.600 32.929 373.696 C 32.308 373.199,31.127 372.343,30.304 371.794 C 29.482 371.245,28.542 370.212,28.215 369.498 C 27.889 368.784,27.260 367.750,26.817 367.200 C 25.217 365.211,25.216 365.126,25.211 200.200 C 25.206 40.121,25.238 36.011,26.524 33.784 C 29.158 29.220,29.261 29.118,33.824 26.505 C 34.300 26.232,35.659 25.847,36.845 25.649 C 40.650 25.014,363.488 25.301,365.400 25.941 M250.480 50.480 C 250.114 50.846,250.000 59.551,250.000 87.218 C 250.000 121.836,249.967 123.506,249.269 124.138 C 248.604 124.739,246.221 124.800,223.291 124.800 L 198.045 124.800 196.953 125.739 L 195.862 126.677 234.329 165.148 C 255.486 186.307,273.259 203.794,273.824 204.009 C 275.878 204.790,276.994 204.488,278.669 202.700 C 279.545 201.765,280.788 200.537,281.431 199.970 C 282.074 199.404,284.130 197.334,286.000 195.370 C 287.870 193.407,289.756 191.616,290.192 191.392 C 290.628 191.168,291.168 190.628,291.392 190.192 C 291.616 189.756,293.407 187.870,295.370 186.000 C 297.334 184.130,299.404 182.086,299.970 181.458 C 301.319 179.962,305.240 176.028,306.449 174.958 C 306.972 174.494,308.972 172.469,310.893 170.458 C 312.815 168.446,314.538 166.800,314.724 166.800 C 315.121 166.800,316.800 165.075,316.800 164.668 C 316.800 164.513,318.446 162.815,320.458 160.893 C 322.469 158.972,324.494 156.972,324.958 156.449 C 326.028 155.240,329.962 151.319,331.458 149.970 C 332.086 149.404,334.130 147.334,336.000 145.370 C 337.870 143.407,339.756 141.616,340.192 141.392 C 340.628 141.168,341.168 140.628,341.392 140.192 C 341.616 139.756,343.407 137.870,345.370 136.000 C 347.334 134.130,349.404 132.074,349.970 131.431 C 350.537 130.788,351.765 129.545,352.700 128.669 C 356.842 124.790,356.908 124.800,326.894 124.800 C 307.568 124.800,301.243 124.683,300.880 124.320 C 300.514 123.954,300.400 115.274,300.400 87.694 C 300.400 63.542,300.263 51.291,299.986 50.774 C 299.474 49.817,251.428 49.532,250.480 50.480 M299.371 51.029 C 299.934 51.591,300.000 55.490,300.000 87.949 C 300.000 115.642,300.114 124.354,300.480 124.720 C 300.843 125.083,307.080 125.200,326.100 125.200 C 348.457 125.200,351.378 125.271,352.489 125.846 L 353.738 126.492 352.053 128.146 C 351.126 129.056,349.257 130.880,347.899 132.200 C 346.541 133.520,344.343 135.749,343.015 137.152 C 341.687 138.556,340.169 140.086,339.642 140.552 C 339.115 141.019,337.045 143.088,335.042 145.150 C 333.039 147.213,331.108 149.171,330.752 149.502 C 329.655 150.521,325.027 155.119,324.540 155.675 C 324.287 155.964,322.397 157.843,320.340 159.851 C 318.283 161.859,316.137 164.019,315.571 164.651 C 315.005 165.283,313.385 166.890,311.971 168.222 C 310.557 169.554,308.500 171.569,307.400 172.701 C 306.300 173.833,304.187 175.984,302.704 177.480 C 301.221 178.976,299.758 180.470,299.454 180.800 C 299.149 181.130,297.213 183.039,295.150 185.042 C 293.088 187.045,291.019 189.115,290.552 189.642 C 290.086 190.169,288.556 191.687,287.152 193.015 C 285.749 194.343,283.520 196.541,282.200 197.899 C 276.657 203.602,276.749 203.532,275.046 203.306 C 272.667 202.991,196.737 127.092,197.768 126.061 C 198.364 125.464,200.927 125.380,224.029 125.200 C 246.202 125.027,249.680 124.920,250.009 124.400 C 250.240 124.034,250.390 109.693,250.394 87.580 C 250.399 59.949,250.514 51.246,250.880 50.880 C 251.702 50.058,298.545 50.202,299.371 51.029 M60.675 62.798 C 59.616 62.986,58.287 63.469,57.721 63.870 C 57.156 64.272,55.979 65.070,55.106 65.645 C 53.553 66.667,52.424 68.183,50.817 71.400 C 49.579 73.879,49.537 199.324,50.774 199.986 C 51.766 200.517,73.563 200.538,74.400 200.009 C 74.926 199.676,75.025 194.013,75.200 154.315 C 75.356 119.058,75.511 108.806,75.901 108.125 C 76.377 107.292,77.073 107.919,90.144 120.953 C 97.831 128.617,104.440 134.885,105.143 135.176 C 105.834 135.463,106.400 135.851,106.400 136.038 C 106.400 137.223,111.377 138.270,114.912 137.828 C 118.158 137.423,119.791 136.049,135.020 120.917 C 148.167 107.853,148.813 107.274,149.295 108.117 C 149.692 108.811,149.823 118.690,149.906 154.200 C 150.003 195.962,150.062 199.438,150.682 199.900 C 151.796 200.730,173.736 200.607,174.577 199.765 C 175.152 199.190,175.202 193.116,175.106 135.034 L 175.000 70.937 173.282 68.663 C 171.731 66.607,170.756 65.779,167.186 63.485 C 165.372 62.318,160.008 62.330,158.535 63.503 C 157.911 64.000,156.500 64.839,155.400 65.368 C 153.673 66.198,151.689 67.882,149.142 70.678 C 148.780 71.075,148.060 71.798,147.542 72.284 C 146.388 73.368,145.849 73.903,142.593 77.200 C 141.180 78.630,139.774 80.050,139.467 80.355 C 138.742 81.077,131.077 88.742,130.355 89.467 C 130.050 89.774,128.630 91.180,127.200 92.593 C 123.903 95.849,123.368 96.388,122.284 97.542 C 121.798 98.060,121.108 98.759,120.752 99.094 C 117.119 102.516,115.572 104.104,115.206 104.788 C 114.570 105.977,110.630 105.977,109.994 104.788 C 109.628 104.104,108.081 102.516,104.448 99.094 C 104.092 98.759,103.402 98.060,102.916 97.542 C 102.429 97.024,101.749 96.330,101.404 96.000 C 101.060 95.670,99.727 94.320,98.442 93.000 C 97.158 91.680,95.678 90.202,95.153 89.716 C 94.629 89.229,93.913 88.509,93.561 88.116 C 93.210 87.722,92.637 87.130,92.288 86.800 C 91.768 86.309,87.901 82.519,85.674 80.320 C 85.385 80.034,83.998 78.630,82.593 77.200 C 79.421 73.973,78.839 73.393,77.658 72.284 C 77.140 71.798,76.420 71.076,76.058 70.680 C 73.634 68.027,71.173 65.874,69.800 65.205 C 68.920 64.777,67.750 64.061,67.200 63.615 C 66.015 62.655,63.349 62.321,60.675 62.798 M66.507 64.451 C 67.116 64.882,68.376 65.563,69.307 65.964 C 70.751 66.586,72.491 68.101,75.659 71.494 C 76.277 72.155,77.499 73.350,78.735 74.502 C 79.626 75.333,83.743 79.485,84.655 80.473 C 85.126 80.983,87.286 83.145,89.455 85.279 C 91.625 87.412,93.777 89.572,94.238 90.079 C 94.700 90.585,96.183 91.990,97.536 93.200 C 98.888 94.410,99.996 95.615,99.997 95.877 C 99.999 96.140,100.516 96.659,101.146 97.032 C 101.776 97.404,102.596 98.224,102.968 98.854 C 103.341 99.484,103.816 100.000,104.025 100.000 C 104.385 100.000,107.989 103.562,109.870 105.776 C 110.572 106.603,111.097 106.800,112.600 106.800 C 114.103 106.800,114.628 106.603,115.330 105.776 C 116.109 104.859,119.661 101.268,121.499 99.541 C 122.159 98.920,123.377 97.672,124.502 96.465 C 125.317 95.590,129.474 91.467,130.473 90.542 C 130.983 90.070,133.256 87.820,135.524 85.542 C 137.793 83.264,139.920 81.130,140.250 80.800 C 140.581 80.470,141.993 79.030,143.388 77.600 C 144.782 76.170,146.166 74.776,146.462 74.502 C 147.672 73.382,148.919 72.159,149.541 71.482 C 152.095 68.702,154.759 66.395,155.644 66.196 C 156.218 66.067,157.634 65.351,158.792 64.605 C 161.144 63.090,163.674 63.001,166.268 64.344 C 170.235 66.398,171.600 67.270,171.600 67.752 C 171.600 68.048,172.138 68.966,172.794 69.793 C 173.451 70.620,174.170 71.949,174.392 72.748 C 175.147 75.466,174.933 198.610,174.171 199.371 C 173.441 200.101,152.325 200.319,151.200 199.609 C 150.674 199.276,150.575 193.590,150.400 153.715 C 150.290 128.682,150.051 107.899,149.869 107.531 C 149.045 105.865,148.309 106.474,134.805 119.989 C 127.345 127.455,120.557 134.020,119.720 134.578 C 118.884 135.135,117.760 135.908,117.223 136.296 C 115.649 137.430,109.638 137.302,108.129 136.102 C 107.508 135.608,106.317 134.835,105.483 134.385 C 104.648 133.935,97.860 127.457,90.396 119.991 C 81.773 111.363,76.623 106.493,76.268 106.629 C 74.825 107.183,74.800 107.972,74.800 153.790 C 74.800 194.123,74.735 198.807,74.171 199.371 C 73.223 200.320,51.973 200.315,51.024 199.367 C 50.450 198.793,50.400 192.815,50.495 136.267 L 50.600 73.800 52.438 70.492 C 55.683 64.651,62.596 61.683,66.507 64.451 M50.480 225.280 C 49.510 226.250,49.817 349.474,50.791 349.995 C 51.747 350.507,99.352 350.382,99.867 349.867 C 100.528 349.205,100.273 325.617,99.600 325.192 C 99.259 324.976,94.145 324.810,87.762 324.806 C 77.387 324.800,76.473 324.744,75.862 324.069 C 75.254 323.396,75.200 319.406,75.200 274.842 C 75.200 242.178,75.065 226.095,74.786 225.574 C 74.277 224.622,51.414 224.346,50.480 225.280 M125.429 225.429 C 124.698 226.159,124.479 248.473,125.192 249.600 C 125.617 250.273,149.206 250.528,149.867 249.867 C 150.528 249.206,150.273 225.617,149.600 225.192 C 148.473 224.479,126.159 224.698,125.429 225.429 M74.171 225.829 C 74.736 226.393,74.800 231.441,74.800 275.414 C 74.800 323.408,74.815 324.380,75.574 324.786 C 76.054 325.043,80.559 325.200,87.442 325.200 C 97.205 325.200,98.625 325.279,99.269 325.862 C 100.334 326.826,100.397 348.098,99.338 349.269 C 98.390 350.316,52.072 350.415,51.029 349.371 C 50.067 348.410,50.067 226.790,51.029 225.829 C 51.569 225.288,53.185 225.200,62.600 225.200 C 72.015 225.200,73.631 225.288,74.171 225.829 M149.269 225.862 C 150.334 226.826,150.397 248.098,149.338 249.269 C 148.374 250.334,127.102 250.397,125.931 249.338 C 124.866 248.374,124.803 227.102,125.862 225.931 C 126.826 224.866,148.098 224.803,149.269 225.862 M300.662 237.931 C 300.067 238.589,300.000 240.434,300.000 256.070 C 300.000 272.425,299.956 273.516,299.269 274.138 C 298.624 274.721,297.195 274.800,287.297 274.800 C 277.612 274.800,275.970 274.887,275.429 275.429 C 274.698 276.159,274.479 298.472,275.191 299.600 C 275.511 300.106,277.372 300.218,287.073 300.318 C 296.976 300.420,298.676 300.526,299.288 301.080 C 299.955 301.684,300.000 303.222,300.000 325.648 C 300.000 348.891,300.022 349.584,300.774 349.986 C 302.159 350.728,323.810 350.532,324.571 349.771 C 325.129 349.214,325.200 346.454,325.200 325.433 C 325.200 303.214,325.245 301.684,325.912 301.080 C 326.524 300.526,328.220 300.420,338.079 300.318 C 344.380 300.253,349.684 300.050,349.867 299.867 C 350.528 299.205,350.272 275.617,349.600 275.192 C 349.259 274.976,344.145 274.810,337.762 274.806 C 327.387 274.800,326.473 274.744,325.862 274.069 C 325.267 273.411,325.200 271.566,325.200 255.930 C 325.200 239.575,325.156 238.484,324.469 237.862 C 323.298 236.802,301.627 236.866,300.662 237.931 M324.320 238.480 C 324.679 238.839,324.800 243.428,324.800 256.666 C 324.800 273.762,324.827 274.386,325.574 274.786 C 326.054 275.043,330.559 275.200,337.442 275.200 C 351.596 275.200,350.000 273.633,350.000 287.530 C 350.000 301.600,351.640 300.000,337.218 300.000 C 328.840 300.000,325.631 300.129,325.280 300.480 C 324.917 300.843,324.800 306.803,324.800 324.851 C 324.800 346.038,324.729 348.814,324.171 349.371 C 323.227 350.316,301.973 350.316,301.029 349.371 C 300.471 348.814,300.400 346.064,300.400 325.145 C 300.400 309.644,300.258 301.282,299.986 300.774 C 299.591 300.036,299.033 300.000,288.117 300.000 C 273.544 300.000,275.200 301.581,275.200 287.670 C 275.200 273.606,273.585 275.200,287.833 275.200 C 297.581 275.200,299.230 275.113,299.771 274.571 C 300.324 274.019,300.400 271.819,300.400 256.451 C 300.400 243.380,300.521 238.839,300.880 238.480 C 301.231 238.129,304.391 238.000,312.600 238.000 C 320.809 238.000,323.969 238.129,324.320 238.480 M125.429 275.429 C 124.690 276.167,124.459 348.442,125.192 349.600 C 125.617 350.273,149.206 350.528,149.867 349.867 C 150.537 349.196,150.275 275.618,149.600 275.192 C 148.473 274.479,126.159 274.698,125.429 275.429 M175.429 275.429 C 174.690 276.167,174.459 348.442,175.192 349.600 C 175.617 350.273,199.205 350.528,199.867 349.867 C 200.050 349.684,200.249 338.717,200.309 325.497 C 200.385 308.762,200.552 301.299,200.858 300.930 C 201.465 300.199,223.592 300.152,224.320 300.880 C 224.682 301.242,224.802 307.194,224.806 325.180 C 224.810 339.493,224.964 349.239,225.192 349.600 C 225.617 350.273,249.206 350.528,249.867 349.867 C 250.537 349.196,250.275 275.618,249.600 275.192 C 248.442 274.459,176.167 274.690,175.429 275.429 M149.269 275.862 C 150.348 276.839,150.415 348.078,149.338 349.269 C 148.374 350.334,127.102 350.397,125.931 349.338 C 124.852 348.361,124.785 277.122,125.862 275.931 C 126.826 274.866,148.098 274.803,149.269 275.862 M249.269 275.862 C 250.348 276.839,250.415 348.078,249.338 349.269 C 248.374 350.334,227.102 350.397,225.931 349.338 C 225.238 348.711,225.200 347.423,225.200 324.818 C 225.200 306.795,225.083 300.843,224.720 300.480 C 224.035 299.795,201.165 299.795,200.480 300.480 C 200.117 300.843,200.000 306.780,200.000 324.749 C 200.000 346.323,199.938 348.605,199.338 349.269 C 198.374 350.334,177.102 350.397,175.931 349.338 C 174.852 348.361,174.785 277.122,175.862 275.931 C 176.839 274.852,248.078 274.785,249.269 275.862 " stroke="none" fill="#8c8c8c" fill-rule="evenodd"></path></g></svg>
